<?xml version="1.0" standalone="no"?>
<!DOCTYPE svg PUBLIC "-//W3C//DTD SVG 20010904//EN"
 "http://www.w3.org/TR/2001/REC-SVG-20010904/DTD/svg10.dtd">
<svg version="1.0" xmlns="http://www.w3.org/2000/svg"
 width="1024.000000pt" height="1024.000000pt" viewBox="0 0 1024.000000 1024.000000"
 preserveAspectRatio="xMidYMid meet">
<metadata>
Created by potrace 1.14, written by Peter Selinger 2001-2017
</metadata>
<g transform="translate(0.000000,1024.000000) scale(0.100000,-0.100000)"
fill="#000000" stroke="none">
<path d="M2354 10174 c-15 -144 17 -272 76 -304 18 -9 16 -14 -23 -90 -23 -44
-44 -80 -47 -80 -3 0 -3 29 -2 65 3 42 0 65 -7 65 -10 0 -17 -75 -14 -152 1
-34 -3 -34 -105 -4 -78 24 -85 24 -138 10 -152 -39 -312 -159 -347 -259 -21
-61 -21 -81 -1 -164 30 -122 77 -205 170 -297 60 -59 80 -84 67 -85 -104 -6
-109 -5 -105 19 2 12 0 22 -6 22 -13 0 -42 -28 -42 -40 0 -11 -41 -50 -52 -50
-4 0 -3 11 2 24 11 29 11 29 -87 46 -83 15 -89 21 -129 128 -35 90 -34 90 -58
41 -16 -33 -21 -63 -21 -119 1 -100 29 -163 102 -230 46 -42 53 -53 43 -65 -7
-8 -19 -15 -27 -15 -25 0 -91 39 -97 57 -9 28 -73 99 -82 91 -4 -4 0 -25 10
-45 11 -27 17 -75 20 -161 4 -138 -1 -152 -59 -152 -33 0 -175 66 -175 81 0
10 -73 79 -78 74 -3 -2 9 -33 26 -69 17 -35 40 -102 52 -148 21 -83 45 -133
83 -175 11 -13 16 -23 10 -23 -6 0 -16 7 -23 15 -7 9 -15 13 -18 10 -9 -9 47
-81 87 -111 22 -16 46 -41 55 -55 14 -24 14 -25 -7 -25 -18 1 -22 -6 -29 -54
-7 -45 -5 -63 13 -105 12 -27 30 -62 41 -77 18 -27 18 -27 -1 -37 -11 -6 -41
-11 -66 -11 -36 0 -51 5 -66 23 l-18 22 -2 -35 c-4 -60 0 -82 16 -99 9 -9 22
-25 29 -36 12 -17 16 -18 32 -5 13 11 12 6 -6 -20 -13 -19 -25 -37 -26 -39 -6
-7 -107 63 -141 98 -19 20 -44 54 -56 76 -38 72 -31 11 7 -69 62 -129 182
-226 279 -226 20 0 37 -5 37 -10 0 -6 -21 -25 -47 -43 -80 -55 -96 -74 -91
-113 2 -19 1 -34 -3 -34 -12 0 -106 106 -114 129 -3 12 -12 20 -18 18 -39 -13
7 -129 94 -235 48 -59 50 -64 35 -81 -42 -46 -25 -150 34 -206 29 -28 39 -55
21 -55 -4 0 -25 14 -46 30 -21 17 -39 30 -41 30 -13 0 1 -25 32 -60 l36 -40
-17 -92 c-9 -51 -23 -111 -31 -133 -8 -23 -14 -48 -14 -58 0 -9 -4 -17 -9 -17
-14 0 -78 81 -111 141 -16 30 -30 47 -30 39 0 -23 108 -213 133 -233 12 -9 32
-16 45 -14 12 3 22 3 22 1 0 -2 -18 -31 -40 -66 -56 -86 -75 -154 -64 -237 4
-36 8 -80 8 -98 0 -34 -81 -233 -94 -233 -5 0 -18 12 -29 28 -28 37 -27 10 3
-53 13 -28 37 -63 55 -77 28 -24 31 -32 31 -86 0 -61 28 -219 54 -304 l15 -47
-32 19 c-75 46 -53 11 36 -57 53 -41 58 -49 53 -74 -4 -20 1 -36 17 -56 13
-15 43 -57 68 -92 39 -56 156 -167 167 -157 5 5 31 118 32 136 0 10 -11 16
-30 17 -47 3 -146 82 -122 96 4 3 41 -15 83 -38 54 -30 81 -40 92 -33 26 14
29 -8 17 -120 -14 -116 -8 -231 16 -358 18 -91 28 -114 43 -99 6 6 7 25 1 50
-17 82 -22 173 -11 208 l12 35 157 4 c143 3 162 6 217 30 33 14 61 25 63 23 2
-2 -1 -11 -6 -22 -28 -54 -35 -101 -39 -241 l-5 -153 24 6 c24 6 26 3 58 -112
70 -254 80 -282 102 -294 32 -17 187 -19 221 -2 15 7 27 17 27 22 0 5 -11 42
-24 82 -13 41 -23 75 -22 76 1 2 19 -32 40 -75 21 -42 50 -89 63 -104 15 -15
23 -33 20 -42 -3 -8 1 -20 9 -26 8 -7 14 -24 14 -39 0 -14 7 -44 15 -66 8 -22
14 -55 15 -74 l0 -34 23 21 c12 12 41 39 65 60 23 22 42 46 42 53 0 7 -20 -6
-44 -30 -24 -24 -50 -41 -56 -39 -9 3 -8 8 3 20 20 19 19 82 0 66 -9 -7 -13
-7 -13 1 0 6 7 14 15 17 21 8 19 23 -7 43 l-21 18 23 31 c18 24 21 38 16 66
-6 32 -10 35 -30 30 -35 -8 -39 9 -11 51 l26 37 -30 51 c-16 29 -34 78 -41
109 -6 32 -32 120 -56 195 -59 182 -81 275 -93 408 -24 246 -8 465 44 635 52
168 55 218 14 295 l-21 40 24 -23 c35 -32 57 -109 68 -234 10 -112 12 -117 43
-188 54 -125 101 -211 147 -272 74 -98 335 -392 364 -411 14 -10 42 -17 63
-17 75 0 116 -25 52 -32 l-31 -3 20 -25 c12 -14 21 -19 22 -12 0 7 5 10 11 6
8 -4 7 -9 -2 -14 -10 -6 -6 -18 16 -47 41 -55 184 -193 161 -155 -11 18 2 15
35 -9 16 -11 43 -23 61 -25 39 -6 329 44 567 98 124 28 261 145 312 266 16 40
40 90 51 110 174 303 249 471 327 732 48 158 98 263 158 330 53 59 93 74 183
68 116 -9 143 -40 220 -250 214 -586 337 -774 673 -1027 40 -29 105 -69 144
-88 94 -43 245 -93 280 -91 16 1 66 -6 111 -15 46 -9 88 -14 93 -11 5 3 9 1 9
-4 0 -6 18 -13 40 -16 22 -3 58 -9 80 -12 22 -3 40 -2 40 3 0 13 -45 27 -245
78 -215 55 -349 97 -429 137 -61 29 -190 117 -184 124 2 2 38 -10 79 -25 40
-16 128 -42 194 -57 113 -26 133 -28 360 -29 203 0 251 3 315 19 119 30 184
68 287 168 103 101 177 205 252 355 28 57 70 133 93 170 23 38 56 100 74 138
28 58 35 66 40 48 3 -12 12 -19 19 -17 17 7 55 -31 55 -54 0 -10 9 -28 20 -40
11 -12 20 -28 20 -36 0 -8 3 -16 8 -18 4 -1 18 -24 31 -50 30 -61 40 -221 18
-287 -8 -22 -10 -38 -5 -35 7 4 7 -6 3 -27 -9 -39 -9 -46 0 -77 6 -19 3 -23
-23 -28 -21 -4 -34 -15 -43 -35 -6 -17 -19 -35 -29 -42 -9 -7 -23 -23 -30 -37
-17 -31 -30 -44 -55 -54 -14 -6 -16 -10 -7 -13 10 -4 8 -9 -7 -20 -12 -8 -21
-20 -21 -28 0 -7 -9 -17 -20 -20 -11 -3 -20 -15 -20 -25 0 -14 -11 -22 -42
-31 -28 -7 -57 -26 -85 -55 -23 -24 -46 -44 -50 -43 -15 4 -63 -13 -63 -22 0
-5 -6 -9 -13 -9 -7 0 -36 -18 -66 -40 -29 -22 -59 -40 -67 -40 -8 0 -14 -4
-14 -9 0 -5 -11 -12 -25 -15 -13 -3 -37 -18 -52 -32 -21 -19 -36 -25 -60 -22
-30 4 -33 1 -70 -72 -20 -41 -37 -78 -35 -82 1 -5 -2 -8 -8 -8 -18 0 -11 -15
13 -25 18 -8 23 -19 25 -63 3 -51 -29 -227 -48 -263 -6 -10 -10 -30 -10 -44 0
-17 -9 -35 -25 -47 -14 -11 -22 -25 -18 -31 3 -7 -2 -4 -13 5 -19 16 -21 16
-46 -6 -26 -22 -58 -92 -58 -129 0 -10 -7 -28 -15 -41 -13 -19 -15 -53 -13
-185 2 -113 0 -164 -8 -169 -16 -10 -33 -74 -27 -105 3 -13 0 -28 -6 -31 -6
-4 -11 -17 -11 -29 0 -18 -69 -172 -115 -257 -50 -93 -95 -194 -95 -213 0 -9
-4 -17 -10 -17 -5 0 -10 -6 -10 -12 0 -7 -9 -24 -19 -37 -15 -19 -16 -29 -8
-42 9 -15 7 -23 -10 -41 -11 -13 -23 -35 -27 -49 -3 -15 -17 -34 -30 -43 -20
-12 -24 -22 -21 -48 3 -24 2 -29 -5 -18 -5 8 -10 11 -11 5 -1 -5 -2 -14 -4
-20 -1 -5 -3 -16 -3 -22 -1 -7 -7 -13 -13 -13 -8 0 -8 4 0 13 8 11 5 13 -18 9
-34 -5 -33 -32 1 -47 12 -6 28 -20 36 -33 l15 -23 -36 21 c-21 12 -40 26 -43
31 -3 5 -10 9 -16 9 -6 0 -4 -8 5 -18 10 -10 14 -22 10 -27 -5 -4 -2 -5 6 0 9
5 12 4 7 -3 -3 -6 3 -16 15 -22 11 -7 19 -14 16 -16 -2 -3 -21 5 -41 17 -51
30 -69 12 -26 -25 32 -27 20 -37 -15 -13 -84 58 -93 58 -43 1 l33 -37 -28 5
c-37 7 -43 -7 -15 -34 13 -13 17 -18 8 -12 -27 19 -84 39 -104 35 -10 -1 -31
10 -47 25 -16 15 -29 23 -29 18 0 -15 50 -84 60 -84 6 0 10 -10 10 -22 0 -20
-5 -17 -46 22 -43 43 -50 36 -16 -18 8 -13 16 -37 17 -53 3 -29 2 -29 -29 15
-37 55 -52 59 -31 10 18 -44 10 -62 -18 -37 -20 18 -20 17 -12 -2 4 -11 9 -33
11 -50 2 -16 1 -23 -2 -15 -11 27 -77 120 -82 115 -3 -2 3 -20 12 -39 20 -42
20 -58 1 -32 -8 11 -15 14 -15 7 0 -7 -5 -9 -12 -5 -6 4 -9 3 -6 -2 20 -38 39
-87 34 -91 -3 -3 -16 7 -30 22 -20 21 -26 24 -26 11 0 -24 -17 -20 -24 6 -5
21 -8 19 -28 -20 -22 -43 -23 -43 -31 -18 -5 14 -13 26 -19 26 -6 0 -8 -6 -5
-13 3 -8 -1 -14 -9 -14 -8 0 -14 4 -14 9 0 5 -7 17 -16 26 -15 15 -16 15 -11
-3 13 -47 17 -94 9 -99 -5 -3 -13 9 -18 27 -7 29 -8 27 -13 -28 -6 -55 -7 -57
-15 -30 -5 17 -8 42 -7 58 2 15 -3 27 -9 27 -7 0 -11 -14 -9 -37 3 -44 -10
-113 -21 -113 -10 0 -20 36 -20 72 0 46 -20 43 -21 -4 l-1 -43 -10 52 c-15 82
-48 47 -48 -50 0 -28 -1 -29 -14 -12 -15 21 -50 30 -43 12 2 -7 1 -21 -4 -32
-6 -15 -8 -11 -9 20 -1 22 -4 33 -7 25 -2 -8 -7 -22 -9 -30 -4 -12 -7 -12 -13
-1 -14 22 -28 4 -24 -31 3 -26 2 -30 -7 -16 -5 9 -9 29 -8 45 2 15 0 28 -4 28
-4 0 -14 9 -22 20 -14 17 -17 18 -26 5 -5 -8 -10 -23 -10 -33 0 -18 -19 -19
-33 -2 -5 6 -7 -2 -4 -17 2 -15 0 -33 -4 -40 -6 -9 -9 -3 -10 17 -1 29 -1 30
-9 5 -7 -22 -8 -22 -10 -5 -1 11 -2 28 -1 37 1 10 -2 26 -8 35 -10 17 -10 17
-11 1 0 -10 -4 -18 -10 -18 -5 0 -10 7 -10 16 0 14 -2 14 -15 0 -8 -8 -15 -24
-15 -35 0 -29 -18 -36 -23 -9 -4 20 -4 20 -6 -4 0 -15 -5 -30 -11 -33 -6 -3
-10 -15 -10 -25 0 -10 -11 -32 -25 -47 l-24 -28 -1 28 c0 16 4 26 10 22 6 -3
10 4 10 17 0 13 5 29 11 35 20 20 2 60 -31 71 -33 12 -31 17 -36 -73 -1 -16
-2 -39 -3 -50 l-2 -20 -9 20 c-5 11 -9 41 -9 68 -1 28 -6 47 -12 47 -8 0 -10
-22 -5 -76 4 -47 3 -74 -3 -70 -5 3 -7 16 -3 29 5 19 4 20 -11 9 -14 -12 -17
-10 -25 20 l-9 33 -8 -50 c-4 -27 -10 -44 -13 -36 -3 10 -9 8 -23 -10 -16 -20
-19 -21 -19 -6 0 10 -4 15 -10 12 -5 -3 -12 7 -16 22 -10 47 -12 49 -13 16 -1
-18 -5 -33 -9 -33 -14 0 -32 23 -32 42 0 10 -6 17 -12 16 -8 -2 -13 9 -13 29
0 31 0 31 -17 13 -10 -11 -18 -27 -18 -38 0 -10 -7 -27 -16 -38 -15 -18 -15
-18 -10 6 3 14 2 39 -3 55 l-8 30 -8 -38 c-11 -59 -30 -39 -30 31 0 37 -4 62
-10 62 -14 0 -45 -69 -45 -98 0 -47 -19 -28 -26 25 -4 32 -9 52 -11 46 -3 -7
-9 -13 -15 -13 -6 0 -7 7 -4 16 6 16 0 14 -46 -18 -15 -11 -32 -34 -38 -51 -7
-25 -9 -16 -5 43 l5 75 -25 -50 c-14 -27 -25 -42 -25 -32 0 9 -5 17 -11 17 -6
0 -9 6 -6 13 7 19 -18 38 -32 24 -16 -16 -24 -2 -12 21 6 12 11 31 11 44 0 20
-2 19 -21 -12 -20 -32 -23 -33 -30 -15 -7 18 -8 18 -8 2 -1 -10 -5 -15 -11
-12 -5 3 -10 -2 -10 -12 0 -14 -2 -15 -9 -4 -5 8 -8 27 -6 43 5 32 -2 35 -22
11 -12 -16 -13 -15 -7 10 4 15 2 27 -2 26 -36 -6 -38 1 -19 56 7 20 6 20 -9 1
-9 -11 -18 -17 -22 -14 -3 4 -20 2 -37 -3 l-31 -9 33 31 c42 38 35 46 -19 19
-40 -20 -74 -19 -38 1 29 16 79 61 74 66 -3 3 -20 -7 -39 -21 -19 -14 -40 -26
-48 -26 -8 0 -32 -9 -53 -21 -52 -27 -58 -17 -7 13 45 25 54 42 19 34 -16 -4
-14 -2 5 6 15 7 27 15 27 19 0 7 -34 0 -72 -16 -11 -4 -18 -3 -18 4 0 6 3 11
8 11 10 1 98 80 89 80 -5 0 -20 -6 -35 -14 -15 -8 -43 -14 -62 -14 -19 0 -54
-7 -77 -16 -52 -18 -54 -15 -9 12 19 11 40 30 46 42 10 19 9 20 -17 14 -15 -4
-37 -14 -48 -24 -25 -22 -65 -43 -71 -37 -3 2 12 19 32 36 20 18 33 35 30 38
-11 12 -81 -23 -81 -40 0 -18 -3 -18 -34 -10 -13 3 -18 10 -14 20 5 13 2 13
-20 -2 -17 -11 -27 -13 -27 -6 0 6 11 17 25 23 25 11 34 28 15 28 -5 0 -6 8
-3 18 6 14 4 15 -9 5 -8 -7 -17 -10 -21 -7 -3 3 -15 0 -28 -6 -20 -11 -21 -10
-16 10 5 20 4 20 -11 7 -9 -7 -25 -17 -34 -20 -27 -10 -22 22 5 33 18 7 19 9
5 11 -10 1 -22 3 -28 4 -5 1 -15 3 -20 4 -6 0 -8 12 -4 25 5 21 3 23 -20 19
-22 -5 -26 -2 -26 18 0 25 -20 65 -20 42 0 -22 -26 -14 -38 12 -7 14 -17 22
-25 19 -8 -3 -20 2 -27 11 -10 12 -16 13 -26 4 -11 -9 -14 -8 -14 4 0 9 4 19
10 22 5 3 10 16 10 28 0 22 -1 22 -20 -3 -17 -21 -21 -23 -30 -10 -5 8 -10 20
-11 25 -1 6 -3 15 -4 20 -2 6 -3 22 -4 38 -1 30 -21 38 -21 8 0 -11 -5 -23
-11 -27 -8 -4 -9 3 -4 26 7 32 7 33 -25 28 -27 -4 -31 -2 -26 14 3 10 9 26 12
36 5 16 -1 18 -43 18 -45 -1 -48 1 -51 27 -3 23 -7 26 -28 21 -14 -4 -24 -2
-24 4 0 6 -13 33 -29 61 -26 43 -28 51 -16 68 20 26 18 35 -5 23 -17 -9 -20
-8 -20 9 0 20 -25 35 -41 25 -5 -3 -9 2 -9 10 0 9 9 16 20 16 11 0 20 7 20 15
0 9 -6 12 -15 9 -12 -5 -15 3 -16 32 -1 22 -1 47 0 56 3 23 -44 25 -53 3 -3
-8 -12 -15 -21 -15 -17 0 -20 16 -5 25 15 9 12 40 -7 80 -16 33 -16 37 0 64
20 33 11 48 -15 25 -32 -30 -46 -4 -40 71 3 45 1 65 -7 65 -6 0 -11 17 -11 40
0 22 -4 40 -8 40 -16 0 -34 52 -22 64 14 14 13 39 -2 33 -7 -2 -18 3 -25 12
-15 20 -17 51 -2 51 6 0 1 12 -10 26 -26 33 -26 39 0 76 l22 30 -22 -7 c-21
-6 -22 -4 -16 17 4 12 15 32 25 43 15 17 34 85 23 85 -1 0 -16 -23 -32 -51
-17 -30 -32 -46 -36 -39 -4 6 0 22 9 35 17 26 21 55 8 55 -15 0 -45 -69 -37
-87 13 -32 12 -97 -1 -124 -15 -29 -76 -87 -131 -123 -63 -41 -143 -48 -237
-21 -27 8 -51 13 -54 11 -10 -10 65 -46 108 -51 122 -16 120 -15 120 -41 0
-21 3 -24 27 -18 24 6 25 5 18 -17 -12 -37 -9 -69 9 -88 31 -34 12 -50 -59
-55 -36 -2 -31 -13 22 -46 37 -24 58 -30 100 -30 55 0 57 1 116 69 16 18 34
30 40 28 14 -4 39 -87 32 -105 -4 -10 -17 -12 -54 -7 -39 5 -57 2 -90 -14 -22
-12 -41 -25 -41 -29 0 -15 117 -110 186 -152 88 -54 104 -68 104 -95 0 -11 5
-26 12 -33 9 -9 6 -12 -15 -12 -15 0 -27 -4 -27 -10 0 -5 11 -10 24 -10 42 0
56 -10 50 -35 -4 -16 2 -28 22 -44 15 -11 33 -21 40 -21 18 0 35 -35 28 -54
-6 -17 -16 -19 -74 -20 -30 -1 -35 -5 -38 -28 -3 -23 3 -30 38 -48 28 -14 46
-18 58 -12 26 14 80 22 97 15 9 -3 25 -22 36 -42 58 -107 89 -155 132 -208 26
-32 74 -98 106 -148 71 -111 152 -212 191 -239 16 -12 32 -31 35 -43 3 -13 12
-23 20 -23 8 0 15 -3 15 -8 0 -4 29 -37 65 -74 36 -37 65 -76 65 -85 0 -10 12
-27 27 -38 26 -19 100 -85 206 -183 26 -24 54 -45 62 -46 8 -1 41 -27 73 -57
180 -165 255 -220 140 -102 -38 37 -68 72 -68 76 0 5 6 2 14 -5 8 -7 26 -22
42 -33 15 -11 78 -61 139 -111 125 -103 169 -132 239 -158 124 -47 387 -267
436 -366 53 -106 90 -150 149 -176 56 -25 121 -78 121 -99 0 -7 8 -20 19 -29
10 -9 27 -38 36 -64 10 -26 22 -51 26 -56 5 -6 9 -20 9 -33 0 -22 2 -23 100
-23 60 0 100 4 100 10 0 6 4 10 9 10 5 0 49 23 98 51 130 75 131 76 114 56 -7
-10 -20 -17 -27 -17 -17 0 -19 -16 -1 -18 44 -3 146 -26 206 -46 49 -17 72
-20 76 -12 3 6 3 1 1 -11 l-4 -23 1734 0 c1248 0 1734 3 1734 11 0 6 -9 13
-20 16 -12 3 -20 14 -21 27 -1 11 -2 26 -3 31 0 6 -20 28 -44 49 -23 21 -45
50 -49 65 -9 38 -42 109 -53 116 -12 7 -3 30 32 81 15 23 28 55 28 70 0 16 7
38 15 48 24 32 18 60 -22 95 -27 24 -44 31 -67 29 -17 -1 -34 -7 -38 -13 -4
-6 -13 -2 -22 10 -22 29 -19 36 10 25 32 -12 37 -12 29 0 -9 15 27 44 75 59
62 18 97 17 120 -4 11 -10 23 -15 27 -12 8 8 11 5 -56 51 -91 64 -171 82 -156
36 4 -13 1 -22 -9 -26 -9 -3 -16 -12 -16 -20 0 -8 -6 -14 -14 -14 -8 0 -17 -6
-19 -12 -4 -8 -8 -4 -12 9 -9 28 -25 30 -25 4 0 -20 -77 -84 -90 -76 -9 6 -37
-25 -42 -45 -2 -8 -10 -20 -18 -27 -13 -11 -13 -14 0 -23 11 -7 11 -10 2 -10
-7 0 -15 7 -18 15 -9 22 -23 9 -17 -15 6 -22 -18 -37 -38 -25 -8 6 -7 10 5 17
20 11 21 48 1 48 -8 0 -15 8 -15 18 0 10 -6 24 -12 31 -10 11 -10 14 -1 18 20
7 15 40 -7 56 -11 8 -17 17 -13 20 3 4 1 7 -5 7 -6 0 -12 -10 -14 -23 -2 -14
-11 -23 -25 -25 -17 -3 -23 -10 -23 -28 0 -13 -5 -24 -11 -24 -5 0 -7 5 -4 10
3 6 2 10 -2 10 -19 0 -33 -26 -33 -61 0 -49 -15 -57 -52 -29 l-30 22 -29 -28
c-16 -15 -29 -24 -29 -18 0 5 -4 2 -10 -6 -6 -9 -5 -17 2 -21 15 -10 0 -29
-17 -23 -8 3 -13 16 -12 27 2 20 -2 22 -35 19 -21 -2 -38 1 -38 6 0 12 -35 24
-80 27 -57 3 -64 5 -57 12 4 3 0 15 -10 25 -19 21 -26 65 -12 73 19 13 8 36
-21 42 -16 3 -30 9 -30 14 0 5 -7 9 -15 9 -16 0 -31 60 -21 85 3 8 1 15 -4 15
-6 0 -10 -9 -10 -20 0 -11 -4 -20 -9 -20 -5 0 -17 -7 -26 -16 -23 -23 -36 -6
-39 47 -2 30 -7 44 -17 44 -18 1 -38 -25 -39 -48 0 -28 -24 -48 -40 -34 -10 9
-11 9 -6 0 5 -9 2 -11 -8 -7 -9 3 -16 11 -16 17 0 6 -7 2 -15 -9 -8 -10 -15
-34 -15 -51 0 -23 -7 -37 -25 -49 -14 -9 -22 -20 -19 -25 3 -5 -7 -14 -21 -19
-39 -15 -47 -12 -40 11 4 12 8 27 9 33 1 6 5 16 9 22 7 11 0 24 -14 24 -3 0
-9 -10 -13 -22 -4 -18 -8 -20 -18 -10 -16 16 -23 15 -43 -4 -24 -24 -30 -10
-30 64 1 37 -3 70 -8 73 -5 3 -22 -7 -38 -24 -22 -22 -33 -27 -41 -19 -8 8
-15 7 -23 -5 -11 -15 -12 -13 -10 10 2 15 -1 25 -5 22 -5 -3 -8 -13 -8 -23 1
-9 -2 -28 -6 -41 -6 -17 -5 -22 4 -16 8 5 11 3 8 -6 -10 -30 -40 -19 -91 33
-80 82 -127 107 -127 68 0 -11 -4 -20 -10 -20 -27 0 -85 85 -318 460 -36 58
-77 119 -92 137 -15 17 -34 49 -41 70 -6 21 -34 85 -61 142 l-50 104 21 111
c26 137 86 360 109 404 9 18 42 69 73 115 31 45 86 128 123 185 l66 102 40
-20 c21 -11 52 -20 68 -20 39 0 82 43 82 81 0 32 -7 34 -61 19 -25 -7 -46 -7
-63 0 -30 11 -33 25 -11 46 8 9 15 24 15 35 0 30 18 22 25 -11 5 -21 13 -30
26 -30 10 0 19 3 19 8 0 4 18 27 40 51 24 26 40 54 40 69 0 19 4 23 18 17 9
-5 78 -10 152 -12 119 -4 139 -2 169 15 49 26 72 77 75 160 2 38 6 74 10 80
17 28 -10 8 -47 -34 -23 -26 -61 -55 -86 -66 -70 -30 -199 -28 -151 2 8 6 27
10 42 10 29 0 108 47 108 65 0 6 13 24 29 39 25 24 36 28 63 23 34 -7 30 0
-17 28 -16 10 -16 13 4 53 14 28 35 48 61 62 21 11 50 35 64 53 28 36 34 56
13 38 -10 -8 -23 -5 -53 10 -117 63 -144 72 -249 84 -30 3 -64 33 -94 81 -18
31 -39 58 -47 61 -19 7 -18 29 1 37 8 3 15 1 15 -3 0 -23 82 -93 147 -126 92
-46 139 -55 147 -29 7 21 49 44 80 44 45 -1 94 -78 74 -114 -6 -10 -8 -20 -5
-22 3 -3 24 30 47 73 24 43 64 107 89 143 26 36 71 106 101 155 65 109 164
255 238 350 117 149 159 301 148 525 -7 135 -31 314 -51 395 l-13 49 91 96
c76 79 157 194 157 224 0 3 -10 6 -22 6 -13 0 -30 5 -38 11 -11 7 -6 9 20 7
45 -3 56 4 63 41 9 43 45 76 112 101 33 13 65 27 70 33 15 14 -93 -1 -126 -19
-27 -13 -30 -13 -61 15 -39 35 -33 49 11 26 l32 -16 87 74 c98 82 146 151 155
224 4 26 9 59 13 73 l6 25 -26 -27 c-14 -16 -28 -28 -31 -28 -3 0 -5 37 -6 83
l-1 82 -12 -60 c-16 -81 -47 -139 -109 -203 -51 -52 -133 -109 -143 -99 -3 2
9 20 27 38 17 19 47 68 66 109 83 176 93 199 93 211 0 7 -9 3 -20 -9 -11 -12
-32 -25 -45 -28 -14 -3 -25 -14 -25 -23 0 -27 -65 -174 -101 -230 -19 -28 -49
-60 -66 -71 -34 -20 -45 -13 -17 11 22 18 40 56 75 157 17 48 37 97 45 109 20
32 19 33 -31 33 -32 0 -45 4 -45 14 0 9 19 16 58 21 83 10 144 46 176 106 15
27 34 55 42 64 14 13 12 15 -20 15 -20 0 -36 3 -36 8 1 4 18 19 39 34 22 14
63 59 93 100 46 61 52 74 36 76 -33 6 -23 62 22 122 22 29 38 56 35 58 -2 3
-20 -9 -40 -27 -51 -45 -104 -69 -176 -81 -79 -12 -179 -13 -199 0 -17 10 -19
10 74 36 95 26 219 89 217 109 -1 4 -43 8 -93 9 -146 4 -283 49 -349 115 -59
60 -26 76 96 46 64 -15 127 -19 138 -8 4 3 -3 17 -15 30 -12 13 -17 23 -11 23
6 0 18 3 26 6 10 3 17 -3 21 -20 l6 -25 48 16 c26 9 54 21 62 28 8 6 36 23 61
38 79 45 146 143 168 245 13 63 14 182 2 236 -8 31 -4 56 20 134 16 52 28 96
26 98 -1 2 -22 -42 -46 -97 -28 -63 -55 -109 -74 -125 -16 -14 -31 -23 -33
-21 -2 2 12 39 32 83 21 43 39 98 40 122 2 23 6 62 8 87 3 33 0 45 -10 45 -20
0 -18 46 6 124 15 46 19 78 14 103 l-7 37 -14 -48 c-12 -39 -35 -69 -133 -171
-65 -68 -128 -142 -140 -164 -23 -46 -43 -55 -35 -16 16 78 21 70 -58 107 -40
20 -89 49 -109 67 -20 17 -52 38 -72 46 -42 18 -40 27 6 45 18 6 43 17 55 22
12 6 51 9 87 6 36 -2 66 0 66 4 0 20 -70 36 -141 32 -71 -4 -75 -5 -113 -44
-46 -48 -60 -45 -22 4 37 49 91 179 111 269 l17 77 -27 31 c-14 18 -29 45 -32
60 -3 16 -12 34 -19 40 -21 17 -18 59 4 59 22 0 52 -30 52 -51 0 -8 7 -23 15
-33 14 -18 15 -18 21 -1 4 10 2 43 -5 74 -7 31 -15 73 -18 95 -5 35 -4 38 15
32 28 -9 56 28 39 55 -9 14 -8 22 6 36 35 39 69 137 74 213 12 172 -65 336
-214 457 -12 10 -33 46 -47 81 -38 97 -108 194 -169 236 -67 46 -78 46 -26 -1
98 -89 133 -177 134 -338 0 -100 -3 -116 -28 -170 -15 -33 -35 -71 -44 -85
-16 -24 -16 -24 -35 45 -10 39 -39 111 -64 162 -70 143 -125 187 -470 387 -92
53 -93 55 -94 196 -1 80 -13 191 -31 278 l-10 52 -2550 0 c-1455 0 -2549 -4
-2549 -9 0 -5 6 -13 13 -19 20 -17 21 -82 1 -103 -9 -11 -20 -19 -24 -19 -9 0
-45 81 -55 123 l-7 27 -193 0 -193 0 -8 -66z m5576 -269 c0 -47 -4 -85 -9 -85
-11 0 -35 58 -34 79 2 20 32 91 38 91 3 0 5 -38 5 -85z m159 -261 c47 -26 118
-68 156 -94 79 -53 176 -139 158 -140 -6 0 -67 40 -135 88 -67 49 -155 108
-195 131 -66 38 -95 61 -77 61 4 0 46 -21 93 -46z m-5821 -4 c66 -29 86 -64
103 -182 10 -74 9 -88 -5 -116 -9 -18 -20 -32 -25 -32 -5 0 -14 21 -21 48 -17
67 -68 160 -104 187 -33 25 -110 49 -188 60 -27 3 -48 10 -48 14 0 4 26 17 58
29 71 27 154 24 230 -8z m6594 -317 c59 -56 93 -200 69 -291 -7 -24 -42 -87
-78 -140 -74 -110 -102 -144 -114 -136 -5 3 -9 40 -10 82 -1 78 -9 75 -23 -9
-12 -69 -74 -106 -120 -72 -19 14 -23 24 -19 43 9 41 49 102 94 145 79 75 137
246 126 372 l-6 65 27 -17 c15 -10 39 -29 54 -42z m-6982 -65 c29 -114 43
-156 65 -195 l24 -43 -24 0 c-32 0 -52 23 -86 94 -39 81 -47 141 -24 166 26
29 33 25 45 -22z m6752 -270 c-7 -7 -12 -8 -12 -2 0 14 12 26 19 19 2 -3 -1
-11 -7 -17z m-109 -29 c-10 -17 -27 -38 -37 -47 -11 -9 -5 4 13 31 36 53 52
64 24 16z m57 -64 c0 -8 -9 -15 -20 -15 -13 0 -18 5 -14 15 4 8 12 15 20 15 8
0 14 -7 14 -15z m-6960 -87 c1 -21 -18 -4 -34 30 l-17 37 25 -30 c14 -16 25
-33 26 -37z m6929 -31 c13 -13 15 -67 2 -67 -5 0 -18 16 -30 35 -14 24 -28 35
-43 35 -33 0 -68 11 -68 21 0 4 17 13 38 19 20 6 46 17 57 26 19 14 20 13 26
-21 3 -20 11 -41 18 -48z m221 -202 c-7 -8 -19 -15 -27 -15 -13 0 -13 3 -3 15
7 8 19 15 27 15 13 0 13 -3 3 -15z m-2780 -117 c-16 -15 -19 -23 -11 -26 8 -3
16 0 20 4 3 5 19 15 34 22 26 11 28 11 22 -8 -6 -20 9 -28 20 -11 3 6 15 8 26
6 12 -3 31 1 43 7 19 10 19 9 8 -4 -19 -23 -1 -30 47 -19 24 5 39 5 35 0 -6
-10 10 -12 68 -9 20 1 49 -5 65 -13 18 -9 38 -11 56 -6 35 10 159 3 166 -10 3
-5 24 -11 46 -14 22 -3 63 -10 90 -15 28 -6 75 -13 105 -15 55 -5 55 -5 20 8
-24 9 -29 14 -15 14 15 1 17 3 6 10 -11 7 80 8 143 2 5 -1 3 -7 -4 -15 -9 -12
-5 -16 24 -21 19 -4 46 -8 60 -9 13 0 22 -4 20 -8 -3 -4 10 -4 29 -1 28 4 33
2 34 -16 1 -12 -2 -21 -6 -21 -5 0 -11 -9 -14 -20 -3 -11 -1 -18 3 -15 5 3 20
1 34 -5 25 -9 26 -8 16 10 -6 11 -7 20 -1 20 8 0 23 -24 25 -41 1 -4 15 -19
31 -36 17 -16 48 -50 69 -76 21 -26 44 -47 51 -47 6 0 21 -9 32 -20 15 -13 23
-16 26 -7 2 7 9 1 17 -13 7 -14 25 -39 40 -56 32 -37 45 -97 61 -283 7 -87 8
-181 3 -265 -11 -174 -10 -185 35 -301 43 -110 46 -127 66 -390 4 -53 79 -398
91 -417 7 -11 6 -10 -57 8 -68 20 -122 51 -226 130 -46 35 -113 79 -150 98
-38 20 -108 68 -157 107 -104 82 -122 92 -199 108 -61 13 -77 10 -59 -12 8
-10 6 -13 -9 -14 -11 -1 -17 2 -14 8 6 9 -6 12 -41 10 -11 -1 -43 7 -70 17
-27 11 -74 22 -104 25 -64 7 -170 -12 -170 -29 0 -6 -8 -15 -17 -19 -24 -10
-177 -6 -228 5 -22 5 -57 10 -78 10 -21 0 -67 9 -103 21 -61 20 -103 20 -149
3 -7 -3 -15 2 -17 10 -3 14 -6 14 -33 -2 -16 -10 -37 -32 -45 -48 -8 -16 -20
-36 -26 -44 -7 -8 -23 -49 -36 -90 l-23 -75 -3 63 c-2 42 -7 60 -14 56 -12 -8
-2 103 11 121 17 23 20 44 5 38 -7 -3 -14 -11 -14 -19 0 -8 -4 -14 -9 -14 -4
0 -12 -33 -15 -72 -10 -98 -16 -124 -27 -106 -5 7 -9 26 -9 42 0 55 -13 16
-26 -80 -16 -111 -49 -231 -72 -257 -34 -38 22 -5 71 42 84 81 50 25 -43 -68
-63 -64 -96 -91 -113 -91 -13 0 -57 14 -97 30 -70 29 -79 30 -225 30 -163 0
-188 -5 -267 -58 -31 -20 -43 -23 -56 -15 -10 6 -16 17 -14 23 2 7 -3 10 -12
7 -9 -4 -13 0 -12 10 3 18 -29 88 -43 97 -5 3 -12 36 -15 73 -4 38 -13 82 -21
98 -8 17 -23 51 -35 76 -20 45 -127 159 -149 159 -25 0 -6 -28 47 -72 42 -35
67 -66 91 -114 33 -67 37 -104 4 -44 -41 74 -107 153 -163 195 -34 24 -66 42
-73 40 -7 -3 -73 1 -147 8 -180 16 -367 14 -460 -6 -41 -9 -115 -18 -165 -21
-49 -3 -104 -10 -121 -16 -17 -6 -62 -12 -100 -13 -65 -3 -309 -61 -370 -89
-14 -7 -32 -24 -40 -40 -8 -15 -49 -54 -92 -86 -42 -33 -119 -98 -171 -146
-67 -61 -110 -92 -148 -106 -54 -20 -108 -27 -101 -12 45 88 98 262 118 382 6
36 20 112 31 169 20 98 20 114 8 275 -13 182 -13 181 -3 239 4 24 2 37 -5 37
-11 0 -11 3 10 125 13 76 74 265 112 348 37 80 224 367 270 415 45 47 148 122
167 122 7 0 52 -27 100 -59 119 -79 182 -102 285 -102 45 0 115 7 156 15 41 9
75 16 76 16 1 0 -1 -8 -4 -17 -4 -10 20 4 53 30 110 89 172 127 237 144 62 16
65 16 198 -12 128 -27 316 -82 359 -105 11 -6 20 -17 20 -24 0 -9 16 -17 43
-21 88 -13 143 -30 180 -57 79 -56 122 -57 172 -4 22 23 175 93 320 146 50 18
162 61 250 95 199 78 242 90 260 75 10 -8 21 -6 46 9 45 26 58 26 29 -1z
m-2250 -114 c-71 -72 -101 -88 -157 -81 -43 5 -123 48 -123 67 0 5 9 14 20 20
24 13 220 48 275 49 l39 1 -54 -56z m708 9 c-10 -2 -28 -2 -40 0 -13 2 -5 4
17 4 22 1 32 -1 23 -4z m4113 -136 c7 -13 1 -33 -22 -77 -17 -33 -35 -60 -40
-60 -4 0 -12 16 -18 35 -8 31 -5 45 21 103 29 63 31 66 40 42 6 -14 14 -33 19
-43z m199 -342 c8 -9 22 -12 41 -8 30 6 39 -7 17 -24 -34 -27 -128 -26 -128 2
0 11 36 43 51 44 4 1 12 -6 19 -14z m170 -72 c0 -12 -99 -63 -122 -63 -42 0
-35 26 9 37 30 7 39 15 46 40 l10 32 28 -22 c16 -11 29 -22 29 -24z m321 -130
c-5 -10 -47 -54 -92 -98 l-83 -80 90 97 c49 53 90 97 92 98 1 0 -2 -8 -7 -17z
m-7856 -23 c-3 -5 -17 -10 -31 -10 -13 0 -24 5 -24 10 0 6 14 10 31 10 17 0
28 -4 24 -10z m7834 -356 c-13 -26 -51 -75 -84 -108 -66 -67 -205 -159 -233
-154 -27 5 -20 23 12 26 59 7 224 149 291 250 36 55 44 47 14 -14z m-7840
-288 c12 -18 21 -41 21 -50 0 -13 -4 -12 -25 6 -16 13 -25 32 -25 50 0 36 4
35 29 -6z m-38 -28 c5 -10 5 -19 0 -23 -14 -8 -34 33 -26 53 6 14 8 15 13 2 2
-8 9 -23 13 -32z m7779 1 c0 -5 -4 -9 -10 -9 -5 0 -10 7 -10 16 0 8 5 12 10 9
6 -3 10 -10 10 -16z m-2496 -199 c-15 -15 -84 -25 -84 -12 0 10 25 17 75 21
13 1 16 -2 9 -9z m-5152 -70 c-8 -23 -79 -156 -98 -185 -9 -14 -20 -23 -24
-20 -15 9 -18 70 -8 146 l11 76 62 -1 c51 -1 61 -4 57 -16z m7748 -105 c0 -10
-53 -55 -106 -90 -90 -59 -230 -56 -277 7 -12 15 -19 30 -16 32 3 3 27 -2 54
-10 82 -25 178 -15 261 29 69 36 84 42 84 32z m-3533 -127 c-3 -8 -6 -5 -6 6
-1 11 2 17 5 13 3 -3 4 -12 1 -19z m-2322 -48 c-3 -5 -14 -10 -23 -10 -35 0
-121 -61 -176 -123 -61 -70 -67 -82 -35 -74 16 4 18 3 8 -9 -6 -8 -17 -14 -24
-14 -14 0 -87 -76 -105 -109 -18 -35 -6 -47 21 -20 13 13 47 39 74 58 28 19
56 41 63 49 11 14 12 14 12 1 0 -9 -38 -51 -85 -93 -47 -43 -85 -84 -85 -92 0
-16 16 -19 25 -4 3 5 16 15 27 21 l21 11 -21 -35 c-38 -61 -26 -63 38 -7 24
22 50 40 56 40 7 0 14 6 17 13 3 7 23 19 46 27 23 7 41 17 41 22 0 4 18 8 40
8 22 0 40 4 40 9 0 8 20 18 55 27 6 2 20 6 33 10 13 4 22 2 22 -5 0 -11 -13
-15 -39 -12 -7 2 -11 -2 -7 -7 3 -5 -18 -16 -47 -25 -52 -16 -103 -46 -81 -47
7 0 41 11 78 25 36 14 66 23 66 21 0 -6 117 38 205 78 74 33 86 35 160 32 91
-3 237 -42 214 -57 -8 -5 -24 -9 -37 -9 -36 0 -290 -59 -368 -85 -88 -30 -236
-114 -287 -163 -47 -46 -92 -114 -112 -172 -9 -25 -21 -49 -29 -55 -18 -14
-36 -50 -36 -73 0 -10 11 -32 25 -48 23 -27 26 -28 58 -16 67 24 97 15 145
-43 7 -8 17 -15 22 -15 13 0 13 33 0 46 -6 6 -2 24 11 52 21 42 22 42 75 42
l53 0 -14 41 c-14 39 -14 41 5 46 11 3 22 14 25 24 7 21 69 103 109 142 l25
26 -6 -44 c-8 -64 13 -136 55 -185 l36 -42 131 4 c114 4 139 8 181 29 72 36
106 95 112 199 3 53 1 85 -7 94 -7 9 -8 17 -2 20 5 3 21 -9 36 -27 29 -36 105
-132 120 -153 7 -9 4 -23 -9 -44 -21 -37 -18 -44 16 -31 44 17 132 23 162 11
40 -15 42 -7 8 26 -31 31 -62 81 -43 70 15 -10 14 -1 -1 16 -7 7 -35 46 -63
87 -27 40 -70 92 -95 113 -40 36 -41 38 -12 22 34 -19 81 -66 115 -114 10 -15
20 -21 25 -15 4 6 34 12 67 13 84 4 91 8 109 53 25 63 21 124 -14 186 -39 69
-38 76 5 22 115 -143 133 -271 89 -639 -20 -165 -53 -257 -150 -420 -167 -280
-252 -334 -607 -385 -132 -19 -436 -22 -510 -5 -193 45 -242 74 -393 232 -100
105 -131 155 -191 303 -78 191 -93 252 -99 413 -6 127 -4 161 15 252 25 127
69 220 146 313 89 108 137 131 365 172 94 17 113 18 105 5z m3993 -89 c36 -27
109 -124 135 -181 53 -117 68 -444 28 -600 -54 -208 -150 -374 -345 -595 -105
-120 -147 -155 -129 -110 8 22 -6 18 -49 -12 -59 -40 -128 -54 -304 -60 -348
-12 -624 49 -757 167 -81 72 -247 294 -247 329 1 9 7 1 15 -16 8 -18 18 -33
23 -33 5 0 15 -11 22 -25 10 -18 16 -22 22 -13 6 10 8 9 8 -3 0 -9 7 -23 17
-30 15 -13 16 -11 9 14 -4 18 -3 26 3 23 15 -10 40 22 47 60 5 27 10 34 23 29
13 -5 14 -4 4 6 -7 7 -13 29 -14 49 -1 31 -2 32 -8 10 l-7 -25 -6 24 c-4 13
-11 20 -17 16 -29 -17 40 105 77 139 16 14 30 17 57 12 38 -7 43 -2 21 23 -44
51 -12 108 73 131 35 9 48 17 41 24 -17 17 -11 47 21 105 54 95 122 161 183
177 33 8 33 -6 1 -36 -54 -51 -70 -182 -30 -243 30 -46 108 -80 198 -85 140
-8 221 35 273 148 15 33 31 60 36 60 5 0 34 -27 65 -60 32 -33 63 -60 70 -60
27 0 11 -21 -29 -40 -24 -11 -68 -36 -98 -55 -74 -46 -142 -59 -265 -51 -55 3
-113 8 -130 11 -49 8 50 -34 109 -47 61 -13 205 -3 243 17 16 8 36 12 46 9 13
-4 17 0 17 21 0 25 2 26 28 20 15 -4 36 -7 47 -5 39 6 97 2 106 -7 10 -10 -66
-103 -85 -103 -6 0 -19 -9 -28 -19 -40 -46 -290 -98 -432 -89 -72 5 -102 -4
-53 -15 194 -46 266 -57 379 -59 100 -2 134 1 183 17 42 14 53 21 38 23 -13 2
-23 8 -23 13 0 5 -9 9 -20 9 -25 0 -25 5 1 31 17 17 30 20 60 16 30 -4 45 0
76 23 21 15 60 35 87 45 49 19 50 19 119 -10 17 -7 18 0 15 109 -2 64 -6 116
-10 116 -5 0 -8 12 -8 26 0 16 4 23 11 18 6 -3 15 0 20 7 12 19 11 129 -1 129
-5 0 -10 -10 -11 -22 0 -13 -3 -17 -6 -10 -2 6 -11 12 -19 12 -10 0 -14 12
-14 40 0 37 13 55 22 28 7 -20 30 3 25 24 -7 25 1 48 18 48 6 0 16 10 22 22 7
17 5 30 -10 56 -16 27 -20 50 -18 115 1 66 -3 91 -21 127 -12 25 -26 55 -31
68 -6 12 -16 22 -24 22 -7 0 -13 7 -13 15 0 16 39 -5 118 -64z m-1449 56
c-159 -114 -258 -212 -304 -304 l-30 -58 0 -185 c0 -196 11 -272 61 -430 13
-41 22 -76 20 -77 -8 -8 -51 112 -78 217 -35 136 -46 295 -29 415 16 117 54
187 149 276 76 71 202 163 211 154 2 -3 2 -6 0 -8z m3221 -96 c0 -12 -38 -36
-83 -50 -57 -19 -55 -7 5 28 54 31 78 38 78 22z m-1130 -13 c0 -7 3 -73 6
-145 5 -95 3 -133 -5 -133 -7 0 -11 21 -11 53 -1 55 -16 189 -26 219 -4 13 0
18 15 18 12 0 21 -6 21 -12z m-1122 -19 c72 -22 107 -45 174 -112 66 -65 80
-87 57 -87 -5 0 -7 5 -3 12 4 7 3 8 -4 4 -9 -5 -9 -13 -2 -27 6 -11 16 -16 22
-13 7 4 8 2 4 -5 -6 -8 -16 -6 -40 8 -38 24 -77 25 -68 1 5 -13 3 -13 -14 1
-58 49 -181 85 -409 118 -77 12 -146 21 -154 21 -8 0 -11 3 -8 7 12 12 141 65
192 78 57 16 195 13 253 -6z m-3588 -5 c0 -8 -71 -36 -78 -30 -3 3 10 12 29
20 37 17 49 19 49 10z m-30 -69 c-14 -8 -32 -14 -40 -14 -9 0 -4 6 10 14 14 8
32 14 40 14 9 0 4 -6 -10 -14z m4535 2 l70 -2 0 -35 c0 -47 -26 -51 -44 -8
l-14 33 -4 -32 -4 -33 -59 0 c-57 0 -58 1 -69 32 -10 27 -9 35 4 44 9 7 24 10
33 7 10 -2 49 -5 87 -6z m-4190 -7 c3 -5 1 -10 -4 -10 -6 0 -11 5 -11 10 0 6
2 10 4 10 3 0 8 -4 11 -10z m-279 -26 c-27 -13 -54 -23 -60 -21 -15 5 64 46
89 46 12 0 1 -9 -29 -25z m-990 -31 c-3 -16 -9 -75 -13 -133 -6 -102 -7 -106
-45 -158 -22 -30 -42 -52 -44 -49 -2 2 5 32 16 67 11 35 25 106 31 159 14 113
23 141 45 141 13 0 15 -6 10 -27z m4365 -8 c114 -25 202 -63 219 -94 9 -18 8
-19 -18 -11 -15 5 -58 21 -97 35 -69 26 -185 37 -407 38 -57 1 -67 8 -49 35
23 37 175 36 352 -3z m-3201 21 c0 -11 -19 -15 -25 -6 -3 5 1 10 9 10 9 0 16
-2 16 -4z m-879 -56 c19 -11 25 -45 11 -68 -13 -20 -62 -29 -122 -23 -63 7
-73 22 -41 63 16 20 30 26 62 26 23 1 44 3 47 6 8 9 21 7 43 -4z m523 -25
c-15 -13 -31 -22 -34 -19 -6 7 38 44 53 44 5 0 -3 -11 -19 -25z m716 2 c-16
-15 -98 -49 -220 -92 -41 -14 -84 -31 -95 -37 -79 -45 -177 -89 -183 -83 -9 9
63 72 129 112 85 51 265 108 354 112 25 1 27 -1 15 -12z m3231 -58 c8 -15 6
-17 -7 -12 -13 5 -15 3 -9 -8 5 -8 -3 -3 -18 10 -20 18 -23 26 -14 36 13 15
31 5 48 -26z m-2810 -26 c13 -15 12 -15 -8 -4 -24 12 -29 21 -14 21 5 0 15 -7
22 -17z m2909 7 c0 -5 -5 -10 -11 -10 -5 0 -7 5 -4 10 3 6 8 10 11 10 2 0 4
-4 4 -10z m-16 -83 c8 -31 3 -30 -16 3 -12 21 -13 27 -3 24 7 -3 16 -15 19
-27z m43 17 c-3 -3 -12 -4 -19 -1 -8 3 -5 6 6 6 11 1 17 -2 13 -5z m526 -9
c-3 -9 -8 -14 -10 -11 -3 3 -2 9 2 15 9 16 15 13 8 -4z m-3347 -52 c13 -14 22
-28 19 -31 -7 -8 -35 19 -51 49 -16 32 -19 53 -3 26 5 -9 21 -29 35 -44z
m-576 15 c-1 -31 -2 -32 -15 -15 -7 11 -11 25 -8 33 10 25 23 15 23 -18z
m2785 2 c8 -13 -14 -42 -26 -34 -5 3 -9 14 -9 25 0 20 24 26 35 9z m-3271 -67
c-9 -15 -21 -32 -26 -38 -5 -5 -25 -31 -45 -57 -35 -47 -71 -70 -39 -25 9 12
21 32 26 45 10 24 83 102 95 102 4 0 -1 -12 -11 -27z m-1565 -260 c0 -34 -1
-36 -11 -16 -6 12 -8 29 -5 37 11 27 17 18 16 -21z m3911 -244 c0 -6 -4 -7
-10 -4 -5 3 -10 11 -10 16 0 6 5 7 10 4 6 -3 10 -11 10 -16z m114 -66 c6 -14
8 -14 21 3 14 18 14 18 15 -8 0 -16 -5 -28 -11 -28 -20 0 -49 21 -49 35 0 20
16 19 24 -2z m2806 -284 c16 -31 30 -61 30 -65 0 -5 -13 14 -29 43 -16 28 -38
69 -51 90 -20 35 -20 36 -1 13 11 -14 34 -50 51 -81z m-4171 -161 c-23 -43
-116 -126 -174 -155 -122 -61 -200 -81 -532 -134 l-193 -31 -29 21 c-35 26
-131 133 -126 141 2 3 30 3 62 -1 100 -13 363 -10 493 6 192 22 335 68 435
138 59 43 81 48 64 15z m3358 -200 c-3 -7 -5 -2 -5 12 0 14 2 19 5 13 2 -7 2
-19 0 -25z m-11 -65 c-11 -11 -17 4 -9 23 7 18 8 18 11 1 2 -10 1 -21 -2 -24z
m-16 -72 c0 -5 -7 -14 -15 -21 -16 -14 -18 -10 -9 14 6 17 24 22 24 7z m-27
-81 c-3 -12 -8 -19 -11 -16 -5 6 5 36 12 36 2 0 2 -9 -1 -20z m-22 -53 c-10
-9 -11 -8 -5 6 3 10 9 15 12 12 3 -3 0 -11 -7 -18z m-82 -241 c-7 -14 -16 -26
-20 -26 -5 0 0 13 9 29 20 36 27 34 11 -3z m459 -413 l20 -42 -23 17 c-13 9
-21 19 -19 21 2 2 -1 11 -6 21 -5 10 -6 20 -3 24 8 8 7 9 31 -41z m-5163 -863
c-5 -8 -11 -8 -17 -2 -6 6 -7 16 -3 22 5 8 11 8 17 2 6 -6 7 -16 3 -22z m4625
-11 c0 -11 -4 -17 -10 -14 -5 3 -10 15 -10 26 0 11 5 17 10 14 6 -3 10 -15 10
-26z m-4383 -355 c-3 -3 -12 -4 -19 -1 -8 3 -5 6 6 6 11 1 17 -2 13 -5z m253
-240 c0 -8 -4 -12 -10 -9 -5 3 -10 10 -10 16 0 5 5 9 10 9 6 0 10 -7 10 -16z
m726 -440 c-4 -9 -9 -15 -11 -12 -3 3 -3 13 1 22 4 9 9 15 11 12 3 -3 3 -13
-1 -22z m-126 12 c0 -2 -7 -7 -16 -10 -8 -3 -12 -2 -9 4 6 10 25 14 25 6z
m1487 -128 c-3 -8 -6 -5 -6 6 -1 11 2 17 5 13 3 -3 4 -12 1 -19z m-500 -160
c-3 -8 -6 -5 -6 6 -1 11 2 17 5 13 3 -3 4 -12 1 -19z m2200 -410 c-3 -8 -6 -5
-6 6 -1 11 2 17 5 13 3 -3 4 -12 1 -19z m733 -379 c0 -11 -4 -17 -10 -14 -5 3
-10 13 -10 21 0 8 5 14 10 14 6 0 10 -9 10 -21z m90 -9 c0 -5 -4 -10 -10 -10
-5 0 -10 5 -10 10 0 6 5 10 10 10 6 0 10 -4 10 -10z m997 -262 c-3 -8 -6 -5
-6 6 -1 11 2 17 5 13 3 -3 4 -12 1 -19z m-17 -29 c0 -18 -2 -19 -15 -9 -8 7
-15 16 -15 21 0 5 7 9 15 9 9 0 15 -9 15 -21z m46 -144 c20 -19 5 -19 -20 0
-11 9 -14 15 -7 15 7 0 19 -7 27 -15z m-3149 -131 c-9 -9 -28 6 -21 18 4 6 10
6 17 -1 6 -6 8 -13 4 -17z m83 -21 c0 -15 2 -16 10 -3 5 8 10 11 10 5 0 -5 5
-3 10 5 9 13 12 12 26 -5 8 -11 20 -19 25 -18 12 4 12 -24 -1 -32 -5 -3 -10
-1 -10 5 0 7 -8 9 -19 5 -26 -8 -71 15 -71 37 0 10 5 18 10 18 6 0 10 -8 10
-17z m3290 -34 c0 -6 -4 -7 -10 -4 -5 3 -10 11 -10 16 0 6 5 7 10 4 6 -3 10
-11 10 -16z m-3166 -6 c-5 -5 -12 -12 -16 -18 -4 -6 -8 -2 -8 8 0 9 7 17 17
17 9 0 12 -3 7 -7z"/>
<path d="M7219 7080 c-2 -61 -2 -115 1 -162 l2 -43 13 40 c8 22 14 34 14 27 1
-7 5 -11 11 -7 14 9 8 105 -7 105 -8 0 -13 15 -13 40 0 22 -4 40 -10 40 -5 0
-11 -18 -11 -40z"/>
<path d="M6446 6822 c-3 -5 -38 -7 -78 -5 -70 3 -72 2 -44 -12 33 -17 76 -20
76 -4 0 5 5 7 11 4 6 -4 27 -4 46 0 27 5 33 9 22 16 -18 11 -26 11 -33 1z"/>
<path d="M3059 5913 c-9 -2 -22 -23 -29 -46 -8 -23 -19 -49 -25 -57 -7 -8 -18
-25 -24 -37 -9 -19 -9 -22 3 -17 8 3 17 12 20 20 3 8 12 14 21 14 8 0 15 7 15
15 0 8 4 15 8 15 4 0 14 17 21 38 8 20 16 43 18 50 5 12 1 13 -28 5z"/>
<path d="M4137 5604 c-3 -4 -19 -8 -35 -10 -16 -2 -42 -9 -58 -15 -38 -17
-215 -38 -234 -28 -8 4 -49 4 -90 1 -62 -4 -70 -7 -50 -15 34 -13 297 -9 337
5 25 9 38 9 56 -1 30 -16 70 0 61 24 -4 8 -2 15 3 15 5 0 18 7 29 15 15 12 16
14 3 15 -9 0 -18 -3 -22 -6z"/>
<path d="M4274 5556 c-23 -6 -48 -17 -57 -24 -9 -8 -24 -12 -35 -10 -21 3 -52
-18 -52 -36 0 -12 -65 -61 -116 -87 -57 -29 -168 -48 -281 -49 -13 0 -23 -4
-23 -9 0 -11 79 -31 124 -31 27 0 34 -3 30 -15 -5 -12 5 -15 54 -15 85 0 179
32 267 92 83 55 205 166 205 186 0 15 -46 16 -56 1 -4 -7 -9 -7 -13 -2 -4 6
-22 5 -47 -1z m-144 -185 c0 -11 -87 -45 -139 -55 -50 -9 -35 0 55 33 43 16
80 29 82 30 1 1 2 -3 2 -8z"/>
<path d="M7475 5538 c-4 -13 -24 -59 -45 -103 -21 -44 -41 -91 -44 -105 -7
-24 -6 -24 8 -6 19 24 99 226 93 233 -3 2 -8 -6 -12 -19z"/>
<path d="M6998 5353 c7 -3 16 -2 19 1 4 3 -2 6 -13 5 -11 0 -14 -3 -6 -6z"/>
<path d="M7358 5278 c-8 -13 -20 -34 -27 -48 -12 -24 -11 -24 4 -5 19 23 48
75 41 75 -2 0 -10 -10 -18 -22z"/>
<path d="M5880 5255 c-7 -9 -10 -18 -6 -22 3 -3 6 -1 6 6 0 7 5 9 10 6 6 -3
10 1 10 9 0 20 -4 20 -20 1z"/>
<path d="M7300 5180 c-6 -11 -8 -20 -6 -20 3 0 10 9 16 20 6 11 8 20 6 20 -3
0 -10 -9 -16 -20z"/>
<path d="M5891 5074 c0 -11 3 -14 6 -6 3 7 2 16 -1 19 -3 4 -6 -2 -5 -13z"/>
<path d="M5906 5028 c3 -5 10 -6 15 -3 13 9 11 12 -6 12 -8 0 -12 -4 -9 -9z"/>
<path d="M7720 6170 c0 -5 10 -14 22 -21 18 -10 20 -9 15 6 -4 9 -7 19 -7 21
0 2 -7 4 -15 4 -8 0 -15 -4 -15 -10z"/>
<path d="M2544 6057 c3 -10 6 -21 6 -23 0 -8 49 -4 54 5 7 11 -22 23 -36 15
-6 -4 -15 0 -20 7 -8 11 -8 10 -4 -4z"/>
<path d="M2500 6030 c0 -5 4 -10 9 -10 6 0 13 5 16 10 3 6 -1 10 -9 10 -9 0
-16 -4 -16 -10z"/>
<path d="M7070 6014 c0 -8 5 -12 10 -9 6 4 8 11 5 16 -9 14 -15 11 -15 -7z"/>
<path d="M1495 9160 c9 -16 18 -30 21 -30 2 0 -2 14 -11 30 -9 17 -18 30 -21
30 -2 0 2 -13 11 -30z"/>
<path d="M1315 8790 c12 -38 46 -103 51 -97 10 10 -19 87 -39 104 -19 18 -19
17 -12 -7z"/>
<path d="M1154 8693 c3 -29 14 -74 26 -100 22 -49 38 -56 19 -7 -6 16 -20 58
-31 94 l-19 65 5 -52z"/>
<path d="M8931 8152 c-1 -7 -19 -32 -41 -56 -41 -44 -47 -56 -31 -56 15 0 83
99 78 112 -4 10 -6 10 -6 0z"/>
<path d="M9087 7878 c8 -97 13 -99 13 -5 0 43 -4 77 -9 77 -6 0 -7 -30 -4 -72z"/>
<path d="M1270 7866 c0 -24 82 -106 106 -106 14 0 11 6 -15 28 -18 15 -46 43
-61 62 -23 28 -30 31 -30 16z"/>
<path d="M1191 6334 c16 -19 69 -47 69 -37 0 5 -19 18 -41 30 -27 15 -37 17
-28 7z"/>
<path d="M9231 6184 c0 -11 3 -14 6 -6 3 7 2 16 -1 19 -3 4 -6 -2 -5 -13z"/>
<path d="M5396 5412 c-2 -4 -7 -57 -11 -117 -3 -61 -13 -155 -20 -210 -8 -56
-17 -145 -21 -199 l-7 -98 37 -71 c32 -63 37 -84 43 -168 8 -128 -2 -155 -91
-243 -40 -39 -88 -90 -108 -114 l-36 -43 -79 -3 c-59 -3 -93 -10 -136 -30 -32
-14 -64 -26 -71 -26 -21 0 -25 -23 -8 -42 28 -33 7 -18 -47 31 -59 54 -199
138 -247 147 -40 7 -111 -12 -132 -36 -15 -18 -18 -18 -40 -4 -23 15 -24 15
-17 -8 15 -46 34 -75 80 -117 65 -60 103 -73 235 -82 63 -4 126 -11 140 -17
25 -10 25 -10 -10 -20 -19 -6 -29 -11 -22 -11 6 -1 12 -10 12 -21 0 -24 4 -25
34 -4 30 19 46 1 22 -25 -9 -10 -22 -37 -30 -62 -7 -24 -17 -53 -21 -64 -7
-20 -7 -20 9 0 9 11 21 37 27 59 9 33 36 75 40 64 9 -19 3 -85 -7 -93 -10 -7
-12 -24 -8 -62 4 -29 10 -53 15 -53 4 0 6 -11 5 -25 -3 -21 0 -24 20 -19 18 5
24 2 24 -10 0 -18 9 -20 44 -6 16 6 46 5 85 -2 56 -11 63 -10 104 12 l45 24
69 -32 c37 -17 91 -34 118 -37 70 -8 155 -29 265 -64 52 -16 129 -37 170 -46
41 -9 92 -23 114 -31 21 -7 43 -11 48 -8 10 6 92 -76 84 -84 -5 -5 -66 17
-108 39 -57 29 -464 148 -509 149 -9 0 -21 -11 -27 -25 -10 -21 -19 -25 -51
-25 -22 0 -43 -5 -47 -11 -3 -6 -20 -9 -38 -6 -17 2 -52 -4 -79 -14 -26 -11
-57 -19 -69 -19 -11 0 -44 -11 -72 -24 -63 -30 -87 -39 -106 -41 -31 -2 -76
-18 -92 -32 -9 -8 -22 -12 -28 -8 -6 4 -23 -1 -38 -11 -47 -31 -227 -52 -285
-33 -31 10 -41 11 -45 1 -4 -13 -42 -17 -42 -4 0 19 -51 30 -88 19 -20 -6 -42
-10 -48 -9 -7 1 -51 -20 -99 -48 -47 -27 -90 -50 -95 -50 -5 0 -22 -11 -39
-25 l-30 -26 9 28 c4 15 15 42 24 59 9 17 18 47 20 67 6 43 25 83 62 126 31
37 19 42 -15 6 -33 -35 -37 -24 -9 22 40 64 40 63 24 57 -9 -3 -26 -22 -38
-42 -27 -44 -36 -26 -14 29 9 21 16 45 16 52 0 15 -44 -37 -67 -78 -11 -21
-18 -25 -21 -16 -3 9 -16 -7 -34 -40 -24 -46 -28 -49 -22 -22 4 24 1 38 -12
50 -21 21 -21 21 -56 -33 -43 -68 -61 -69 -33 -1 4 10 3 17 -4 17 -6 0 -11 -4
-11 -9 0 -13 -73 -120 -82 -121 -4 0 -3 13 2 30 13 46 -8 47 -28 1 -20 -47
-32 -52 -32 -13 0 18 -3 23 -9 14 -4 -8 -12 -14 -17 -15 -5 -1 -9 -13 -9 -27
-1 -14 -8 -37 -18 -50 -19 -27 -23 -70 -7 -70 6 0 10 -13 10 -30 0 -31 9 -37
27 -19 14 14 25 -40 15 -78 -4 -15 -5 -50 -2 -78 l5 -50 12 30 c6 17 17 47 23
68 16 53 21 46 14 -20 -6 -45 -5 -54 6 -48 10 6 12 -3 7 -48 -3 -32 -2 -57 3
-57 11 0 42 54 64 112 22 60 36 70 31 21 -4 -32 -3 -35 7 -18 30 54 99 152
117 168 37 31 41 18 11 -33 -38 -64 -38 -70 0 -30 25 27 34 31 61 25 17 -4 46
-15 63 -25 17 -10 59 -26 94 -36 61 -16 68 -16 161 1 104 19 297 18 309 -2 4
-6 25 -13 47 -16 22 -4 65 -13 95 -22 78 -22 264 -30 363 -17 390 54 445 56
471 17 14 -21 13 -26 -13 -62 -66 -90 -192 -212 -246 -239 -75 -36 -267 -55
-580 -57 -148 -1 -247 -6 -258 -13 -17 -9 -15 -14 17 -69 20 -32 49 -66 66
-76 33 -20 36 -29 19 -46 -9 -9 -5 -13 17 -18 16 -3 45 -10 65 -15 20 -6 64
-10 97 -10 33 0 64 -4 67 -10 3 -5 19 -7 36 -3 28 5 30 4 24 -20 -6 -23 -3
-27 32 -36 51 -14 58 -14 74 6 13 14 14 13 19 -13 l5 -28 22 23 c20 21 24 22
57 10 33 -12 37 -11 61 15 21 23 30 26 59 21 19 -4 43 -2 56 5 12 6 63 14 113
18 127 8 138 8 262 -3 130 -11 238 -13 280 -3 17 3 45 10 63 13 17 4 32 12 32
17 0 5 7 16 15 25 25 25 2 41 -50 35 -31 -3 -45 -1 -45 7 0 8 -8 10 -22 6 -16
-6 -20 -4 -15 8 3 9 -1 18 -9 21 -8 3 -14 16 -14 29 0 13 -3 27 -7 31 -13 12
-31 78 -26 92 3 8 0 14 -7 14 -14 0 -4 38 16 61 8 8 16 29 17 45 2 16 14 48
25 71 12 23 22 49 22 58 0 8 3 15 8 15 4 0 15 17 24 38 39 86 138 156 209 148
22 -3 52 0 65 6 19 9 30 9 45 0 17 -11 19 -9 19 18 0 40 13 38 40 -5 25 -40
35 -44 43 -14 5 17 11 20 32 15 14 -4 41 -4 60 0 32 6 34 9 40 57 4 29 12 58
17 64 13 16 2 77 -17 93 -8 7 -40 50 -70 96 -31 46 -65 89 -76 94 -10 6 -19
17 -19 24 0 19 -40 67 -51 61 -5 -4 -14 5 -21 19 -6 14 -17 26 -23 26 -7 0
-18 6 -25 14 -6 8 -17 13 -24 10 -17 -6 -47 45 -76 127 -12 35 -71 163 -131
284 -60 121 -109 225 -109 230 0 6 -28 57 -61 115 -74 127 -104 193 -129 284
-22 78 -42 106 -77 106 -51 0 -93 -72 -95 -167 -2 -84 5 -107 38 -121 31 -15
91 -16 99 -2 10 16 42 -6 75 -52 29 -40 40 -88 20 -88 -5 0 -10 -7 -10 -15 0
-22 -48 -30 -89 -14 -21 7 -79 13 -141 13 l-104 1 -8 45 c-9 51 -4 72 20 97
23 22 27 162 8 218 -8 22 -17 68 -21 102 -3 35 -10 75 -15 90 -5 16 -11 71
-13 124 -2 53 -7 100 -10 105 -3 5 -8 33 -11 62 -3 29 -13 66 -21 82 -8 16
-15 37 -15 46 0 19 -40 84 -52 84 -4 0 -9 -3 -12 -8z m163 -1225 c-2 -2 -40
-34 -84 -71 l-80 -68 72 71 c40 39 78 71 85 71 6 0 9 -2 7 -3z m-1422 -799
c-3 -8 -6 -5 -6 6 -1 11 2 17 5 13 3 -3 4 -12 1 -19z m755 -238 l22 -30 22 27
c21 26 26 27 90 25 70 -4 94 -13 94 -38 0 -8 4 -14 9 -14 5 0 11 -12 13 -27 3
-16 7 -35 9 -43 7 -25 -185 -36 -225 -12 -5 3 -43 4 -84 3 l-75 -2 7 26 c4 15
9 41 12 59 9 53 12 56 48 56 28 0 40 -7 58 -30z m-1026 -17 c-8 -15 -15 -22
-16 -15 0 17 20 55 27 49 2 -3 -2 -18 -11 -34z m1439 16 c17 -26 12 -61 -9
-68 -11 -5 -20 -12 -18 -17 2 -5 -1 -10 -7 -12 -14 -5 -11 90 3 100 15 11 24
10 31 -3z m-1474 -186 c-12 -20 -14 -14 -5 12 4 9 9 14 11 11 3 -2 0 -13 -6
-23z"/>
<path d="M2045 4666 c-27 -5 -52 -11 -53 -12 -5 -4 61 -63 70 -64 9 0 40 70
36 79 -2 3 -25 2 -53 -3z"/>
<path d="M7070 4330 c-9 -6 -10 -10 -3 -10 6 0 15 5 18 10 8 12 4 12 -15 0z"/>
<path d="M1780 4184 c0 -13 38 -75 78 -129 25 -33 79 -104 119 -158 67 -89
145 -159 159 -144 4 3 -9 21 -27 39 -47 46 -81 88 -98 120 -8 15 -21 36 -30
45 -9 10 -36 43 -61 73 -51 64 -140 161 -140 154z"/>
<path d="M4770 3918 c-11 -12 -20 -26 -20 -31 0 -10 59 34 59 46 2 14 -18 7
-39 -15z"/>
<path d="M4788 3827 c-3 -19 -2 -25 4 -19 6 6 8 18 6 28 -3 14 -5 12 -10 -9z"/>
<path d="M4696 3815 c-9 -26 -7 -32 5 -12 6 10 9 21 6 23 -2 3 -7 -2 -11 -11z"/>
<path d="M4505 3790 c-3 -5 1 -10 9 -10 9 0 16 5 16 10 0 6 -4 10 -9 10 -6 0
-13 -4 -16 -10z"/>
<path d="M4640 3770 c-20 -20 -27 -50 -12 -50 5 0 16 16 25 35 19 40 16 44
-13 15z"/>
<path d="M4716 3772 c-4 -12 -13 -19 -20 -16 -15 6 -42 -49 -32 -65 4 -6 26 9
51 33 43 41 56 66 35 66 -5 0 -10 -6 -10 -12 0 -10 -3 -9 -9 1 -7 11 -10 9
-15 -7z"/>
<path d="M4762 3735 c-17 -37 -15 -41 8 -12 22 27 25 37 12 37 -5 0 -14 -11
-20 -25z"/>
<path d="M4439 3713 c-13 -16 -12 -17 4 -4 16 13 21 21 13 21 -2 0 -10 -8 -17
-17z"/>
<path d="M4812 3700 c0 -14 2 -19 5 -12 2 6 2 18 0 25 -3 6 -5 1 -5 -13z"/>
<path d="M4470 3695 c-7 -9 -10 -18 -7 -21 3 -3 10 4 17 15 13 25 8 27 -10 6z"/>
<path d="M4520 3689 c0 -5 5 -7 10 -4 6 3 10 8 10 11 0 2 -4 4 -10 4 -5 0 -10
-5 -10 -11z"/>
<path d="M4561 3686 c-9 -11 -9 -15 1 -19 10 -4 10 -6 1 -6 -7 -1 -13 -8 -13
-16 0 -8 -4 -15 -10 -15 -5 0 -7 -6 -4 -14 3 -7 -4 -31 -15 -52 -12 -21 -21
-50 -20 -64 1 -24 1 -24 11 5 6 17 23 53 39 80 42 78 50 149 10 101z"/>
<path d="M4710 3685 c-6 -8 -10 -19 -8 -26 2 -6 9 0 16 15 13 29 10 33 -8 11z"/>
<path d="M4480 3640 c0 -5 -8 -10 -17 -10 -17 0 -60 -69 -83 -132 -15 -43 -3
-33 30 25 16 29 41 63 55 75 22 19 34 52 20 52 -3 0 -5 -4 -5 -10z"/>
<path d="M4665 3635 c-4 -11 -12 -33 -17 -48 -8 -20 -8 -31 1 -40 8 -8 11 -4
11 17 0 15 5 36 11 47 6 11 8 25 6 32 -3 7 -8 4 -12 -8z"/>
<path d="M4717 3632 c-27 -30 -48 -102 -29 -102 7 0 33 53 46 98 9 27 4 28
-17 4z"/>
<path d="M4390 3607 l-23 -32 29 27 c15 15 26 30 23 33 -3 2 -16 -10 -29 -28z"/>
<path d="M4596 3600 c-28 -42 -32 -55 -16 -45 6 3 10 0 10 -7 0 -15 34 39 44
70 12 35 -9 25 -38 -18z"/>
<path d="M2080 3603 c0 -5 5 -15 10 -23 8 -12 10 -11 10 8 0 12 -4 22 -10 22
-5 0 -10 -3 -10 -7z"/>
<path d="M2780 3589 c0 -5 5 -7 10 -4 6 3 10 8 10 11 0 2 -4 4 -10 4 -5 0 -10
-5 -10 -11z"/>
<path d="M4472 3565 c-13 -18 -21 -39 -17 -45 5 -8 13 1 23 21 9 19 23 39 32
46 13 11 13 12 0 13 -8 0 -26 -16 -38 -35z"/>
<path d="M4641 3514 c0 -11 3 -14 6 -6 3 7 2 16 -1 19 -3 4 -6 -2 -5 -13z"/>
<path d="M4433 3495 c-3 -9 -3 -18 -1 -21 3 -3 8 4 11 16 6 23 -1 27 -10 5z"/>
<path d="M2873 3115 c-17 -19 -16 -25 2 -25 8 0 15 2 15 4 0 2 3 11 6 20 8 20
-7 20 -23 1z"/>
<path d="M3400 2704 c0 -8 5 -12 10 -9 6 4 8 11 5 16 -9 14 -15 11 -15 -7z"/>
<path d="M3135 2605 c-11 -16 -24 -33 -29 -37 -6 -4 -8 -9 -6 -12 11 -10 62
42 58 60 -3 16 -6 15 -23 -11z"/>
<path d="M3147 2546 c-11 -28 -8 -35 13 -33 24 2 25 7 7 31 -13 18 -14 18 -20
2z"/>
<path d="M3485 2530 c4 -6 11 -8 16 -5 14 9 11 15 -7 15 -8 0 -12 -5 -9 -10z"/>
<path d="M3210 2510 c0 -11 5 -20 10 -20 6 0 10 9 10 20 0 11 -4 20 -10 20 -5
0 -10 -9 -10 -20z"/>
<path d="M3440 2471 c-12 -24 -13 -34 -1 -27 9 6 22 46 15 46 -2 0 -8 -9 -14
-19z"/>
<path d="M2600 2310 c0 -5 12 -10 26 -10 14 0 23 4 19 10 -3 6 -15 10 -26 10
-10 0 -19 -4 -19 -10z"/>
<path d="M3762 2185 c-35 -18 -59 -36 -53 -39 11 -7 77 27 106 55 25 25 22 24
-53 -16z"/>
<path d="M950 2180 c-7 -16 -10 -36 -7 -44 3 -8 -1 -20 -9 -27 -13 -10 -13
-15 0 -34 12 -19 12 -23 -2 -32 -14 -8 -15 -14 -4 -37 10 -23 9 -34 -5 -64 -9
-20 -25 -47 -37 -60 -22 -24 -30 -52 -15 -52 5 0 9 -18 9 -39 0 -22 5 -43 10
-46 6 -3 10 -15 10 -26 0 -10 -4 -19 -10 -19 -18 0 -10 -22 10 -27 20 -5 28
-23 10 -23 -5 0 -10 -8 -10 -18 0 -10 -16 -33 -35 -52 -19 -18 -32 -37 -29
-42 10 -16 -6 -58 -21 -58 -9 0 -20 12 -25 26 l-10 27 -19 -22 c-10 -11 -26
-21 -35 -21 -21 0 -21 -19 0 -27 12 -4 14 -14 9 -39 -4 -25 -2 -34 8 -34 8 0
19 -11 25 -25 11 -23 9 -29 -18 -55 -37 -36 -37 -50 -4 -83 l25 -25 -59 -60
-59 -59 -21 24 c-26 29 -47 96 -31 102 13 4 59 53 59 63 0 12 -28 10 -49 -3
-10 -7 -30 -9 -46 -5 l-28 7 23 24 c20 22 21 25 6 31 -9 3 -28 -1 -41 -10 -23
-15 -27 -15 -40 -2 -8 8 -15 21 -15 30 0 8 -11 27 -25 42 -14 15 -21 30 -17
33 5 3 12 20 16 36 5 24 1 36 -21 60 -17 18 -29 44 -31 65 -4 40 -15 55 -32
45 -8 -5 -9 -23 -5 -57 5 -35 4 -53 -5 -58 -18 -11 -3 -110 16 -110 8 0 14 -4
14 -10 0 -5 -4 -10 -10 -10 -18 0 -11 -15 13 -25 15 -7 24 -21 27 -45 4 -24 8
-31 14 -22 6 11 11 9 23 -8 12 -16 12 -24 3 -35 -7 -8 -19 -15 -26 -15 -20 0
-18 -8 11 -42 14 -16 25 -37 26 -46 4 -59 -3 -78 -41 -112 -37 -33 -39 -36
-21 -47 26 -16 18 -43 -27 -88 -35 -34 -35 -36 -14 -42 16 -4 22 -13 22 -32 0
-22 6 -29 32 -36 17 -6 34 -16 36 -24 3 -10 -4 -12 -35 -6 l-40 6 -17 -61
c-17 -61 -18 -61 -49 -55 l-32 6 35 -16 c33 -16 34 -17 16 -31 -11 -8 -14 -14
-8 -14 18 0 15 -60 -3 -66 -8 -4 -15 -11 -15 -16 0 -6 7 -7 16 -4 10 4 14 1
11 -6 -4 -15 -90 -12 -95 3 -6 16 -69 10 -76 -6 -4 -13 -2 -13 14 -5 24 13 30
13 30 0 0 -5 -7 -10 -16 -10 -9 0 -18 -9 -21 -20 -3 -11 -10 -20 -17 -20 -6 0
-4 -4 4 -10 12 -7 12 -12 -5 -29 -10 -12 -15 -24 -10 -29 4 -4 10 -1 12 6 3 6
14 12 25 12 17 0 19 -2 7 -16 -10 -13 -10 -17 2 -25 10 -6 7 -9 -13 -9 -14 0
-29 -6 -32 -12 -5 -10 -7 -10 -12 0 -4 10 -15 6 -39 -13 -19 -14 -36 -25 -39
-25 -3 0 -6 26 -6 57 0 31 -2 54 -4 52 -5 -5 -9 -175 -7 -301 l1 -98 1360 0
c1339 0 1360 0 1360 19 0 11 -6 50 -14 88 -42 198 -43 349 -3 399 25 33 31 23
46 -72 7 -47 7 -89 1 -130 -6 -32 -10 -72 -9 -89 l1 -30 8 30 c24 93 31 168
25 256 -7 90 -6 97 24 160 29 63 72 240 70 291 0 12 -18 -31 -40 -97 -22 -66
-49 -135 -60 -154 -25 -43 -89 -121 -99 -121 -8 0 3 78 18 131 41 143 182 424
209 414 19 -6 102 277 90 308 -3 6 -6 2 -6 -11 -1 -12 -5 -30 -10 -40 -5 -9
-23 -46 -40 -82 -18 -36 -45 -83 -61 -105 -16 -22 -45 -63 -64 -91 -38 -55
-44 -58 -236 -131 -145 -55 -397 -156 -432 -174 -45 -23 -65 -25 -24 -3 16 9
44 30 63 47 19 18 47 37 61 44 15 6 21 12 14 12 -8 1 -28 7 -45 15 -18 8 -40
17 -51 20 -11 4 -16 12 -12 21 6 18 -27 55 -49 55 -8 0 -15 5 -15 10 0 6 -7
10 -15 10 -10 0 -13 9 -10 31 2 20 -1 32 -11 36 -11 4 -12 9 -3 19 6 8 17 14
23 14 6 1 26 14 45 30 l35 29 -24 21 c-13 11 -28 20 -34 20 -6 0 1 11 15 24
15 12 32 39 38 59 7 20 17 39 22 42 15 10 10 45 -7 45 -9 0 -13 5 -9 13 4 6
-3 1 -14 -13 -11 -14 -21 -39 -21 -56 0 -35 -31 -68 -72 -78 -26 -6 -27 -5
-19 17 9 22 14 74 12 106 -1 8 -8 11 -20 8 -17 -4 -19 -1 -14 31 l6 36 -26
-17 c-22 -14 -27 -15 -27 -3 0 21 -18 30 -34 17 -7 -6 -21 -8 -30 -5 -12 5
-19 0 -23 -15 -4 -17 -12 -21 -32 -19 -33 4 -40 14 -42 58 -1 20 -3 27 -6 16
-4 -16 -7 -15 -24 10 -10 16 -19 24 -19 18 0 -7 -11 -15 -25 -18 -16 -4 -25
-13 -25 -26 0 -18 -16 -26 -43 -21 -5 1 -6 -2 -3 -7 8 -13 -35 -49 -56 -49
-10 0 -18 7 -18 14 0 8 -5 11 -11 7 -8 -4 -8 -9 0 -17 15 -15 14 -44 -1 -49
-7 -3 -24 6 -37 18 -14 13 -27 21 -30 18 -3 -3 1 -9 9 -14 12 -8 10 -10 -8
-10 -13 0 -21 4 -17 9 3 5 -2 16 -10 24 -22 22 -19 40 5 34 11 -3 20 -2 20 2
0 4 -9 17 -20 29 -11 12 -20 24 -20 27 0 9 38 5 43 -5 3 -6 4 -5 3 2 -1 7 -24
17 -50 22 -39 8 -47 13 -43 28 3 11 0 18 -9 18 -16 0 -19 36 -4 45 6 4 8 11 4
16 -3 5 -10 6 -17 2 -6 -3 -1 8 12 25 17 24 18 30 6 26 -9 -4 -23 2 -35 16
-10 12 -24 19 -29 15 -7 -4 -8 0 -5 10 4 9 -1 21 -11 29 -11 8 -19 27 -19 47
-1 19 -5 39 -9 45 -4 7 2 14 14 17 25 7 16 27 -12 27 -13 0 -19 -7 -19 -22 0
-17 -3 -19 -12 -10 -16 16 -28 15 -28 -2 0 -19 -33 -10 -47 13 -10 16 -8 17
13 13 14 -2 24 0 24 7 0 7 -4 9 -10 6 -5 -3 -10 -1 -10 4 0 6 -9 11 -20 11
-11 0 -23 7 -26 15 -4 8 -14 15 -24 15 -26 0 -81 25 -73 33 4 4 -4 6 -17 5
-13 -2 -25 3 -28 12 -5 13 -3 13 11 1 22 -18 22 -5 -1 24 -15 18 -22 21 -37
12 -15 -8 -22 -6 -35 11 -21 25 -22 98 -2 94 10 -2 11 4 7 19 -4 11 -7 36 -7
55 0 45 -13 51 -28 14z m360 -395 c0 -8 -4 -15 -10 -15 -5 0 -10 7 -10 15 0 8
5 15 10 15 6 0 10 -7 10 -15z m-225 -65 c3 -5 1 -10 -5 -10 -7 0 -10 -7 -6
-15 3 -9 0 -15 -9 -15 -8 0 -15 8 -15 18 0 29 22 43 35 22z m30 -40 c-3 -5
-12 -10 -18 -10 -7 0 -6 4 3 10 19 12 23 12 15 0z m210 -10 c-3 -5 -10 -10
-16 -10 -5 0 -9 5 -9 10 0 6 7 10 16 10 8 0 12 -4 9 -10z m-105 -81 c0 -17
-10 -33 -30 -47 l-30 -23 0 41 c0 46 35 94 51 69 5 -8 9 -26 9 -40z m-80 -19
c0 -5 -5 -10 -11 -10 -5 0 -7 5 -4 10 3 6 8 10 11 10 2 0 4 -4 4 -10z m-9
-124 c-8 -13 -10 -36 -7 -52 5 -23 1 -36 -24 -62 -16 -18 -30 -40 -30 -49 0
-11 -3 -13 -12 -5 -10 8 -13 5 -14 -11 0 -12 -4 -33 -8 -47 -5 -19 -2 -32 14
-50 l21 -24 -40 -34 c-23 -19 -41 -39 -41 -45 0 -14 -43 -77 -53 -77 -5 0 -5
5 -1 12 4 6 8 24 10 40 1 16 14 42 29 58 21 22 26 36 23 59 -3 17 -1 31 4 31
5 0 7 4 4 9 -4 5 -2 21 4 35 6 17 6 27 -1 32 -8 4 -7 9 2 15 7 4 13 24 13 43
0 35 5 40 35 37 7 -2 10 2 7 8 -4 5 -2 12 4 16 5 3 7 18 4 33 -8 37 34 87 55
66 12 -11 13 -17 2 -38z m656 -18 c-3 -7 -5 -2 -5 12 0 14 2 19 5 13 2 -7 2
-19 0 -25z m-300 6 c-3 -3 -12 -4 -19 -1 -8 3 -5 6 6 6 11 1 17 -2 13 -5z
m443 -61 c0 -1 -10 -11 -22 -22 -17 -16 -19 -23 -9 -35 17 -20 3 -68 -18 -64
-22 4 -28 68 -7 80 9 5 16 17 16 26 0 11 8 18 20 18 11 0 20 -1 20 -3z m-266
-69 c9 -3 16 -14 16 -24 0 -17 19 -30 42 -30 6 0 6 6 -2 15 -10 12 -9 15 8 15
23 0 44 -22 39 -41 -2 -8 -2 -11 0 -7 5 8 53 -12 53 -23 0 -4 -10 -5 -22 -3
-13 2 -17 2 -10 -2 6 -3 12 -16 12 -28 0 -13 3 -26 8 -30 8 -9 9 -14 11 -57
l1 -31 53 4 c28 3 61 9 71 13 17 7 18 5 12 -21 -4 -16 -16 -37 -27 -47 -10
-10 -19 -24 -19 -32 0 -8 -13 -29 -29 -47 -16 -18 -32 -48 -36 -65 -3 -18 -10
-33 -14 -33 -15 0 -31 -51 -25 -78 6 -26 6 -26 -10 -7 -13 17 -17 18 -26 5 -8
-13 -10 -13 -10 1 0 9 6 19 13 22 10 4 13 31 8 85 0 7 -5 10 -11 7 -17 -11
-11 11 11 39 11 14 27 26 34 26 19 0 35 32 34 67 0 16 -3 22 -6 13 -8 -21 -25
-30 -44 -24 -12 3 -21 -6 -32 -33 -9 -21 -16 -32 -16 -25 -1 6 -5 12 -11 12
-14 0 -12 -33 3 -49 10 -11 8 -12 -9 -7 -17 5 -23 2 -28 -19 -4 -14 -11 -25
-16 -25 -6 0 -10 -6 -10 -14 0 -26 -89 -36 -110 -11 -15 18 -5 35 20 35 10 0
22 5 25 10 4 6 10 8 15 5 11 -7 90 41 90 54 0 13 -21 27 -50 35 -14 3 -40 19
-58 35 -31 28 -32 30 -15 46 16 17 16 17 -5 11 -32 -10 -27 1 8 19 39 20 40
57 3 91 -21 19 -24 27 -14 37 9 9 16 9 30 0 18 -12 31 -8 31 9 0 4 -6 8 -14 8
-8 0 -17 15 -21 37 -5 29 -3 40 11 50 21 15 18 15 38 7z m-560 -70 c3 -9 4
-20 0 -25 -6 -10 -34 14 -34 30 0 17 27 13 34 -5z m796 -14 c0 -5 -4 -10 -10
-10 -5 0 -10 5 -10 10 0 6 5 10 10 10 6 0 10 -4 10 -10z m-70 -40 c0 -5 -4
-10 -10 -10 -5 0 -10 5 -10 10 0 6 5 10 10 10 6 0 10 -4 10 -10z m-1070 -50
c0 -5 -2 -10 -4 -10 -3 0 -8 5 -11 10 -3 6 -1 10 4 10 6 0 11 -4 11 -10z m27
-47 c-3 -10 -5 -4 -5 12 0 17 2 24 5 18 2 -7 2 -21 0 -30z m-42 -70 c-2 -7 0
-13 5 -13 6 0 10 -4 10 -10 0 -5 -6 -10 -14 -10 -7 0 -16 -9 -19 -20 -3 -11
-1 -18 4 -14 5 3 9 -2 9 -11 0 -22 -23 -14 -30 11 -3 10 -11 19 -17 20 -27 2
-31 5 -36 26 -9 31 -3 35 48 34 32 -1 44 -5 40 -13z m178 0 c-7 -3 -13 -11
-13 -19 0 -8 -4 -14 -10 -14 -15 0 -12 11 7 32 9 10 19 15 22 12 3 -4 0 -9 -6
-11z m-58 -77 c23 -22 8 -84 -25 -101 -14 -7 -32 -21 -39 -29 -8 -9 -24 -16
-38 -16 -20 0 -23 -4 -18 -19 8 -25 -29 -48 -50 -31 -7 6 -15 7 -17 3 -5 -13
-77 -53 -94 -53 -9 0 -23 -7 -32 -16 -12 -13 -17 -14 -20 -4 -5 15 35 49 58
50 30 1 100 39 95 52 -3 11 38 51 120 114 15 12 16 14 3 10 -21 -6 -14 22 10
42 20 16 30 15 47 -2z m-165 -85 c0 -14 -36 -41 -55 -41 -12 0 -3 29 16 48 22
24 39 21 39 -7z m1018 -57 c6 -11 4 -26 -5 -46 -8 -16 -12 -35 -9 -43 6 -16
-13 -28 -59 -39 -23 -6 -27 -5 -18 5 6 6 9 18 6 25 -3 8 -1 14 4 14 5 0 10 10
10 22 1 13 8 27 16 33 7 5 16 18 20 28 8 21 23 22 35 1z m-658 -193 c0 -9 6
-23 12 -29 10 -10 10 -15 -2 -22 -11 -7 -20 -3 -31 12 l-17 22 -32 -27 c-17
-15 -36 -25 -40 -22 -5 3 -25 -4 -44 -15 -20 -11 -36 -15 -36 -10 0 5 12 16
28 24 15 8 36 23 46 35 11 12 24 21 31 21 6 0 22 11 35 25 18 19 26 22 37 14
7 -6 13 -19 13 -28z m-476 7 c-3 -5 -12 -7 -20 -4 -7 3 -16 1 -19 -4 -8 -12
-35 -13 -35 -2 0 13 42 30 62 24 10 -2 15 -9 12 -14z m-153 -101 c-8 -8 -11
-7 -11 4 0 9 3 19 7 23 4 4 9 2 11 -4 3 -7 -1 -17 -7 -23z m575 -19 c-9 -5
-26 -6 -39 -2 -21 7 -20 8 8 14 36 8 54 1 31 -12z m-809 -38 c-1 -12 -8 -20
-20 -20 -15 0 -17 3 -8 13 6 8 8 17 4 20 -3 4 1 7 10 7 10 0 15 -8 14 -20z
m87 5 c-7 -17 -20 -20 -29 -6 -3 5 3 12 12 14 10 3 19 5 20 6 1 0 0 -6 -3 -14z
m61 5 c3 -5 2 -10 -4 -10 -5 0 -13 5 -16 10 -3 6 -2 10 4 10 5 0 13 -4 16 -10z
m-135 -170 c0 -5 -8 -10 -17 -10 -15 0 -16 -2 -3 -10 12 -8 11 -10 -7 -10 -16
0 -23 6 -23 20 0 15 7 20 25 20 14 0 25 -4 25 -10z m400 -4 c0 -3 -4 -8 -10
-11 -5 -3 -10 -1 -10 4 0 6 5 11 10 11 6 0 10 -2 10 -4z m-460 -16 c0 -5 -5
-10 -11 -10 -5 0 -8 -4 -4 -9 7 -12 -26 -31 -54 -31 -12 0 -21 -4 -21 -10 0
-5 7 -7 15 -4 9 4 15 0 15 -10 0 -10 -9 -16 -23 -16 -20 0 -23 5 -24 39 -2 39
-2 39 45 49 26 5 50 10 55 11 4 0 7 -3 7 -9z m280 -40 c0 -5 -5 -10 -11 -10
-5 0 -7 5 -4 10 3 6 8 10 11 10 2 0 4 -4 4 -10z m108 -7 c-2 -10 -7 -16 -12
-15 -5 2 -12 -2 -17 -9 -13 -21 -22 -3 -9 20 13 26 43 28 38 4z m-348 -13 c0
-5 -2 -10 -4 -10 -2 0 -12 -3 -22 -7 -16 -6 -17 -5 -4 10 17 19 30 22 30 7z
m401 -4 c-7 -8 -11 -23 -9 -33 2 -10 -2 -17 -9 -16 -7 2 -13 -2 -13 -9 0 -9
-3 -9 -11 -1 -6 6 -18 9 -25 6 -10 -4 -12 0 -8 11 3 9 12 16 20 16 7 0 18 9
24 20 6 11 18 20 27 20 12 0 13 -3 4 -14z m-396 -56 c-10 -17 -45 -32 -45 -20
0 6 10 15 23 20 29 12 29 12 22 0z m215 -30 c0 -5 -5 -10 -11 -10 -5 0 -7 5
-4 10 3 6 8 10 11 10 2 0 4 -4 4 -10z m-290 -24 c0 -3 -4 -8 -10 -11 -5 -3
-10 -1 -10 4 0 6 5 11 10 11 6 0 10 -2 10 -4z m398 -29 c3 -13 -4 -17 -33 -17
-22 0 -34 4 -30 10 3 6 13 10 21 10 8 0 14 5 14 11 0 17 25 4 28 -14z m82 13
c-20 -13 -33 -13 -25 0 3 6 14 10 23 10 15 0 15 -2 2 -10z m-390 -32 c0 -5
-11 -8 -25 -8 -14 0 -25 4 -25 9 0 5 11 8 25 7 14 0 25 -4 25 -8z"/>
<path d="M1650 1280 c0 -5 5 -10 11 -10 5 0 7 5 4 10 -3 6 -8 10 -11 10 -2 0
-4 -4 -4 -10z"/>
<path d="M1660 1245 c0 -3 7 -14 16 -23 15 -14 16 -14 13 3 -4 17 -29 35 -29
20z"/>
<path d="M1688 1203 c-34 -9 -18 -18 32 -18 28 0 50 3 50 8 0 4 -6 7 -12 7 -7
0 -22 2 -33 4 -11 2 -28 2 -37 -1z"/>
<path d="M1740 1095 c0 -8 4 -15 9 -15 5 0 11 7 15 15 3 9 0 15 -9 15 -8 0
-15 -7 -15 -15z"/>
<path d="M1715 1050 c-3 -5 1 -10 10 -10 9 0 13 5 10 10 -3 6 -8 10 -10 10 -2
0 -7 -4 -10 -10z"/>
<path d="M1755 1050 c-3 -5 -2 -10 4 -10 5 0 13 5 16 10 3 6 2 10 -4 10 -5 0
-13 -4 -16 -10z"/>
<path d="M3795 2150 c-3 -6 1 -7 9 -4 18 7 21 14 7 14 -6 0 -13 -4 -16 -10z"/>
<path d="M3870 2132 c-89 -34 -129 -54 -134 -69 -7 -17 16 -16 40 2 10 8 25
15 32 15 7 0 30 11 50 25 20 14 44 25 54 25 15 0 35 18 27 24 -2 2 -33 -8 -69
-22z"/>
<path d="M3739 2109 c-23 -19 -23 -20 -2 -10 12 6 25 16 28 21 10 16 -1 12
-26 -11z"/>
<path d="M3917 2111 c-19 -13 -24 -20 -15 -24 13 -4 58 24 58 37 0 10 -13 6
-43 -13z"/>
<path d="M518 2097 c-12 -29 -10 -63 3 -50 6 6 9 23 7 39 -2 24 -4 26 -10 11z"/>
<path d="M3640 2099 c0 -5 5 -7 10 -4 6 3 10 8 10 11 0 2 -4 4 -10 4 -5 0 -10
-5 -10 -11z"/>
<path d="M980 2054 c0 -20 4 -25 16 -20 8 3 12 2 9 -3 -3 -5 -1 -12 5 -16 6
-4 10 8 10 29 0 29 -4 36 -20 36 -15 0 -20 -7 -20 -26z"/>
<path d="M3744 2015 c-10 -8 -14 -15 -8 -15 6 0 17 7 24 15 16 19 9 19 -16 0z"/>
<path d="M3949 2002 l-22 -19 22 -6 c15 -4 30 2 49 19 22 21 23 23 5 15 -27
-14 -36 -14 -28 -1 9 15 0 12 -26 -8z"/>
<path d="M6130 2010 c0 -5 5 -10 10 -10 6 0 10 5 10 10 0 6 -4 10 -10 10 -5 0
-10 -4 -10 -10z"/>
<path d="M4240 1985 c-8 -9 -8 -15 -2 -15 12 0 26 19 19 26 -2 2 -10 -2 -17
-11z"/>
<path d="M492 1898 c-16 -16 -15 -28 3 -28 8 0 15 9 15 20 0 23 -2 24 -18 8z"/>
<path d="M800 1889 c0 -5 5 -7 10 -4 6 3 10 8 10 11 0 2 -4 4 -10 4 -5 0 -10
-5 -10 -11z"/>
<path d="M1460 1860 c0 -5 5 -10 11 -10 5 0 7 5 4 10 -3 6 -8 10 -11 10 -2 0
-4 -4 -4 -10z"/>
<path d="M1376 1845 c-3 -8 -1 -15 3 -15 5 0 11 7 15 15 3 8 1 15 -3 15 -5 0
-11 -7 -15 -15z"/>
<path d="M4557 1843 c-4 -3 -7 -11 -7 -17 0 -6 5 -5 12 2 6 6 9 14 7 17 -3 3
-9 2 -12 -2z"/>
<path d="M713 1830 c-13 -5 -23 -14 -23 -20 0 -5 -6 -10 -12 -10 -7 0 -19 -4
-26 -9 -24 -15 7 -51 43 -51 36 0 55 15 55 44 0 11 7 28 17 38 15 17 15 18 -8
17 -13 0 -34 -4 -46 -9z"/>
<path d="M195 1799 c-6 -19 0 -38 9 -28 10 12 16 49 7 49 -5 0 -13 -9 -16 -21z"/>
<path d="M4357 1813 c-4 -3 -7 -13 -7 -21 0 -12 3 -12 15 -2 8 7 15 16 15 21
0 11 -14 12 -23 2z"/>
<path d="M4990 1784 c0 -8 5 -12 10 -9 6 3 10 10 10 16 0 5 -4 9 -10 9 -5 0
-10 -7 -10 -16z"/>
<path d="M426 1783 c5 -5 12 -12 16 -18 4 -6 8 -2 8 8 0 9 -7 17 -17 17 -9 0
-12 -3 -7 -7z"/>
<path d="M5400 1758 c0 -32 15 -45 24 -21 4 9 0 23 -9 32 -13 14 -15 13 -15
-11z"/>
<path d="M5446 1759 c-13 -41 -14 -78 -2 -94 11 -15 14 -12 29 25 15 40 15 43
-3 62 -15 17 -20 18 -24 7z"/>
<path d="M4792 1743 c-18 -32 -16 -51 4 -31 9 8 14 24 12 34 -4 18 -5 17 -16
-3z"/>
<path d="M1385 1739 c-11 -17 -2 -18 19 -3 17 12 17 14 4 14 -9 0 -20 -5 -23
-11z"/>
<path d="M4825 1709 c-8 -23 -1 -34 14 -24 13 8 15 45 2 45 -5 0 -13 -9 -16
-21z"/>
<path d="M407 1705 c-4 -8 -2 -17 3 -20 6 -4 10 3 10 14 0 25 -6 27 -13 6z"/>
<path d="M4561 1634 c0 -11 3 -14 6 -6 3 7 2 16 -1 19 -3 4 -6 -2 -5 -13z"/>
<path d="M3247 1583 c-32 -62 -34 -101 -8 -174 19 -56 108 -239 116 -239 2 0
-7 30 -22 68 -19 50 -30 110 -42 232 l-17 165 -27 -52z"/>
<path d="M698 1603 c7 -3 16 -2 19 1 4 3 -2 6 -13 5 -11 0 -14 -3 -6 -6z"/>
<path d="M1790 1571 c0 -17 5 -33 10 -36 6 -4 10 8 10 29 0 20 -4 36 -10 36
-5 0 -10 -13 -10 -29z"/>
<path d="M710 1572 c0 -17 6 -20 30 -20 18 1 29 6 27 12 -3 6 -10 10 -17 8 -7
-1 -18 3 -26 9 -11 9 -14 7 -14 -9z"/>
<path d="M1681 1503 c-8 -9 -16 -27 -17 -41 l-3 -24 23 21 c12 11 28 21 35 21
17 0 9 34 -9 37 -8 1 -21 -5 -29 -14z"/>
<path d="M695 1380 c-3 -5 -1 -10 4 -10 6 0 11 5 11 10 0 6 -2 10 -4 10 -3 0
-8 -4 -11 -10z"/>
<path d="M2360 1381 c0 -5 7 -12 16 -15 14 -5 15 -4 4 9 -14 17 -20 19 -20 6z"/>
<path d="M147 1338 c-20 -23 -37 -45 -37 -49 0 -4 -8 -9 -17 -12 -10 -2 -25
-8 -35 -12 -11 -4 -18 -1 -21 12 -3 10 -6 -43 -7 -117 -1 -74 -3 -180 -6 -235
-2 -55 0 -131 5 -170 4 -38 9 -57 10 -42 1 24 5 28 26 25 13 -2 23 2 22 7 -1
6 -7 10 -14 10 -24 0 -36 25 -33 72 1 26 1 59 1 72 -1 21 1 22 15 10 15 -12
16 -11 10 9 -5 13 -3 22 3 22 6 0 11 7 11 15 0 8 5 15 10 15 6 0 10 4 10 10 0
5 13 22 29 38 29 27 29 28 9 41 -16 10 -19 19 -13 48 l6 35 -45 -6 c-41 -6
-45 -5 -43 13 2 25 47 36 92 23 32 -9 74 3 88 25 4 7 15 13 22 13 20 0 19 26
-1 34 -9 4 -14 13 -10 21 4 10 -1 15 -14 15 -23 0 -25 17 -5 44 18 24 19 39 3
33 -7 -2 -18 3 -23 10 -9 11 -18 6 -48 -29z m-33 -274 c24 -9 19 -19 -9 -19
-14 0 -25 6 -25 13 0 13 10 15 34 6z"/>
<path d="M685 1350 c-3 -5 -2 -10 4 -10 5 0 13 5 16 10 3 6 2 10 -4 10 -5 0
-13 -4 -16 -10z"/>
<path d="M2520 1207 c-14 -6 -27 -14 -30 -17 -3 -4 -13 -10 -24 -13 -11 -5
-16 -13 -12 -23 3 -8 -3 -33 -14 -54 -24 -47 -25 -64 -5 -56 8 3 23 9 33 12
16 5 16 5 0 -6 -9 -6 -15 -17 -12 -25 4 -9 0 -15 -10 -15 -20 0 -40 -36 -26
-45 21 -13 70 -24 65 -14 -4 5 3 9 14 9 11 0 22 4 25 9 3 4 31 9 62 9 31 0 60
6 64 12 4 6 23 12 42 13 20 1 33 6 30 11 -3 5 2 6 12 3 9 -4 15 -3 12 2 -3 5
1 14 9 21 19 16 20 44 1 37 -18 -7 -28 17 -20 49 4 14 2 24 -5 24 -6 0 -8 7
-4 17 4 11 3 14 -5 9 -7 -4 -12 -1 -12 8 0 12 -11 16 -37 17 -32 0 -35 2 -18
10 17 8 16 9 -7 4 -14 -3 -33 -8 -42 -11 -9 -3 -16 -1 -16 5 0 14 -38 13 -70
-2z m114 -116 c3 -5 -1 -12 -10 -15 -27 -10 -44 -7 -44 9 0 16 45 21 54 6z
m-64 -36 c0 -11 -7 -14 -25 -9 -15 4 -25 2 -25 -5 0 -6 10 -11 23 -11 21 -1
21 -1 -6 -25 -27 -24 -47 -25 -47 -3 0 5 7 8 15 4 8 -3 15 -1 15 4 0 5 -9 12
-21 15 -20 7 -20 7 5 20 14 7 33 15 43 18 10 3 19 5 21 6 1 0 2 -6 2 -14z"/>
<path d="M420 1170 c0 -5 5 -10 11 -10 5 0 7 5 4 10 -3 6 -8 10 -11 10 -2 0
-4 -4 -4 -10z"/>
<path d="M2112 1071 c13 -21 35 -30 56 -23 7 2 -2 12 -22 23 -45 24 -49 24
-34 0z"/>
<path d="M4370 990 c0 -5 5 -10 11 -10 5 0 7 5 4 10 -3 6 -8 10 -11 10 -2 0
-4 -4 -4 -10z"/>
<path d="M9580 975 c-13 -15 -12 -19 5 -31 24 -17 26 -15 17 20 -7 26 -9 27
-22 11z"/>
<path d="M9655 891 c-6 -11 9 -23 19 -14 9 9 7 23 -3 23 -6 0 -12 -4 -16 -9z"/>
<path d="M51 844 c0 -11 3 -14 6 -6 3 7 2 16 -1 19 -3 4 -6 -2 -5 -13z"/>
<path d="M131 839 c7 -14 14 -18 21 -11 13 13 2 32 -18 32 -12 0 -13 -4 -3
-21z"/>
<path d="M200 850 c0 -5 7 -10 15 -10 8 0 15 5 15 10 0 6 -7 10 -15 10 -8 0
-15 -4 -15 -10z"/>
<path d="M328 733 c7 -3 16 -2 19 1 4 3 -2 6 -13 5 -11 0 -14 -3 -6 -6z"/>
<path d="M185 660 c-3 -5 -1 -10 4 -10 6 0 11 5 11 10 0 6 -2 10 -4 10 -3 0
-8 -4 -11 -10z"/>
<path d="M8530 630 c0 -5 7 -7 15 -4 8 4 15 8 15 10 0 2 -7 4 -15 4 -8 0 -15
-4 -15 -10z"/>
<path d="M207 580 c-4 -15 0 -20 13 -20 13 0 17 5 13 20 -3 11 -9 20 -13 20
-4 0 -10 -9 -13 -20z"/>
<path d="M170 570 c0 -5 5 -10 10 -10 6 0 10 5 10 10 0 6 -4 10 -10 10 -5 0
-10 -4 -10 -10z"/>
<path d="M120 560 c-9 -6 -10 -10 -3 -10 6 0 15 5 18 10 8 12 4 12 -15 0z"/>
<path d="M266 558 c5 -8 -18 -12 -43 -9 -7 1 -13 -3 -13 -9 0 -5 6 -10 14 -10
8 0 16 -7 20 -15 8 -23 46 -19 46 5 0 11 4 20 10 20 5 0 7 6 4 13 -2 7 -13 13
-24 13 -10 0 -16 -4 -14 -8z"/>
<path d="M170 540 c0 -5 5 -10 10 -10 6 0 10 5 10 10 0 6 -4 10 -10 10 -5 0
-10 -4 -10 -10z"/>
<path d="M120 482 c0 -12 19 -26 26 -19 2 2 -2 10 -11 17 -9 8 -15 8 -15 2z"/>
<path d="M98 403 c6 -2 18 -2 25 0 6 3 1 5 -13 5 -14 0 -19 -2 -12 -5z"/>
<path d="M65 370 c4 -6 11 -8 16 -5 14 9 11 15 -7 15 -8 0 -12 -5 -9 -10z"/>
<path d="M10006 200 c12 -5 25 -13 29 -19 8 -14 45 -15 45 -1 0 5 -17 14 -37
19 -45 13 -67 13 -37 1z"/>
</g>
</svg>
